<?xml version="1.0" standalone="no"?>
<!DOCTYPE svg PUBLIC "-//W3C//DTD SVG 1.1//EN" "http://www.w3.org/Graphics/SVG/1.1/DTD/svg11.dtd" >
<svg xmlns="http://www.w3.org/2000/svg" xmlns:xlink="http://www.w3.org/1999/xlink" version="1.1">
<metadata></metadata>
<defs>
<font id="alteraregular" horiz-adv-x="1024" >
<font-face units-per-em="2048" ascent="1536" descent="-512" />
<missing-glyph horiz-adv-x="500" />
<glyph horiz-adv-x="0" />
<glyph unicode="&#xd;" />
<glyph unicode=" " />
<glyph unicode="!" horiz-adv-x="204" d="M88 1546h37l-8 -1124h-21zM94 0v193h25v-193h-25z" />
<glyph unicode="(" horiz-adv-x="385" d="M141 100v1342q0 147 60.5 213.5t183.5 66.5v-24q-111 0 -164 -58.5t-55 -197.5v-1342q2 -139 55 -197.5t164 -58.5v-24q-123 0 -183.5 66.5t-60.5 213.5z" />
<glyph unicode=")" horiz-adv-x="376" d="M0 -156q111 0 164 58.5t55 197.5v1342q-2 139 -55 197.5t-164 58.5v24q123 0 183.5 -66.5t60.5 -213.5v-1342q0 -147 -60.5 -213.5t-183.5 -66.5v24z" />
<glyph unicode="," horiz-adv-x="200" d="M68 -37q-33 10 6 113q26 63 57 53q29 -10 6 -78q-20 -47 -35.5 -71.5t-33.5 -16.5z" />
<glyph unicode="-" horiz-adv-x="1114" d="M152 547v24h813v-24h-813z" />
<glyph unicode="." horiz-adv-x="329" d="M111 61q0 25 16 42.5t41 17.5q23 0 39 -17.5t16 -42.5t-16.5 -42t-38.5 -17q-25 0 -41 17.5t-16 41.5z" />
<glyph unicode="0" horiz-adv-x="1241" d="M111 770q0 371 133 571.5t377 200.5q246 0 377.5 -200.5t131.5 -571.5q0 -176 -35.5 -318.5t-102 -242.5t-161 -154.5t-210.5 -54.5q-117 0 -211.5 54.5t-161 154.5t-102 242.5t-35.5 318.5zM135 770q0 -170 35 -307t97.5 -234.5t152.5 -150.5t201 -53t200.5 53 t152 150.5t97.5 234.5t35 307q0 356 -127 552t-358 196t-358.5 -196t-127.5 -552z" />
<glyph unicode="1" horiz-adv-x="432" d="M0 1264l270 272h15v-1536h-25v1491l-225 -227h-35z" />
<glyph unicode="2" horiz-adv-x="1134" d="M115 0q0 100 47 192.5t121.5 176.5t169 161.5t187.5 149.5t177 139.5t141 132.5q41 45 57.5 86t16.5 90q0 78 -33.5 149t-94 125t-142.5 86t-176 32q-74 0 -141.5 -20.5t-125 -58.5t-103.5 -94.5t-73 -125.5l-22 8q20 70 64 127t106.5 99t137.5 65.5t157 23.5 q98 0 184 -32.5t149.5 -89t100.5 -132.5t37 -162q0 -53 -21.5 -104t-68.5 -98l-66 -66q-74 -74 -178.5 -149.5t-208.5 -161.5q-74 -61 -140.5 -125t-117.5 -129.5t-81 -133t-30 -134.5h975v-27h-1005z" />
<glyph unicode="3" horiz-adv-x="1001" d="M33 170l14 14q78 -78 165 -118.5t198 -40.5q113 0 199.5 34.5t147 95t92.5 139.5t32 165q0 78 -35 144.5t-97.5 114.5t-149.5 75.5t-189 27.5h-23v21q129 0 211 31.5t128 81t63.5 107.5t17.5 114q0 66 -25.5 127t-69.5 108t-106.5 74.5t-136.5 27.5q-111 0 -195 -37.5 t-170 -119.5l-12 12q72 78 166 124t211 46q74 0 140.5 -28.5t115.5 -78t77.5 -115t28.5 -140.5q0 -59 -15 -114.5t-48 -98.5q-45 -59 -113.5 -94t-144.5 -33q57 0 126 -27t129 -76t100 -118.5t40 -155.5q0 -102 -37 -186.5t-102.5 -144.5t-156.5 -94t-199 -34 q-111 0 -211.5 46t-165.5 124z" />
<glyph unicode="4" horiz-adv-x="1040" d="M2 459v24l733 1053h25v-1053h227v-24h-227v-459h-25v459h-733zM31 483h2h702v1012z" />
<glyph unicode="5" horiz-adv-x="1083" d="M76 184l16 17q74 -82 177.5 -129t228.5 -47q109 0 204 37.5t166.5 102t113.5 153t42 186.5q0 96 -39 179t-104.5 146.5t-150.5 102.5t-177 49q-76 6 -152 0q-72 -8 -140 -32.5t-138 -71.5l129 659h663v-27h-643l-114 -581q63 39 141 59.5t156 20.5h37q113 0 214 -40 t176.5 -107.5t121 -160t45.5 -196.5t-44 -195.5t-119 -160t-175.5 -108.5t-212.5 -40q-127 0 -236.5 49t-185.5 135z" />
<glyph unicode="6" horiz-adv-x="1157" d="M90 647q0 53 8 121t31 144.5t62.5 157.5t103.5 163q63 82 145 141.5t164 97t153.5 55t116.5 17.5v-22q-31 0 -94 -14.5t-140 -48.5t-159 -89t-153 -139q-88 -113 -144.5 -237t-66.5 -296q23 98 77 174t128.5 124t162 66.5t177.5 4.5q100 -16 181 -71.5t134 -138.5 t74.5 -185.5t3.5 -212.5q-16 -100 -63.5 -184.5t-116 -145.5t-153.5 -95t-175 -34q-121 0 -207 55.5t-141.5 145.5t-82 206.5t-26.5 239.5zM125 588q0 -94 23.5 -194.5t73.5 -182.5t128 -134t189 -52q88 0 170 31.5t148.5 89t112.5 138.5t62 179q16 104 -4 202.5 t-71.5 177.5t-128 132t-171.5 69q-109 18 -205 -12.5t-168.5 -95t-115.5 -155.5t-43 -193z" />
<glyph unicode="7" horiz-adv-x="808" d="M0 1511v25h791l-580 -1536h-31l572 1511h-752z" />
<glyph unicode="8" horiz-adv-x="1107" d="M94 444q0 119 60.5 219.5t156.5 159.5q35 20 71 32.5t62 21.5q-113 33 -185.5 120.5t-72.5 202.5q0 70 29 132.5t79 108.5t116.5 72.5t142.5 26.5t142.5 -26.5t116.5 -72.5t79 -108.5t29 -132.5q0 -90 -47.5 -163.5t-122.5 -121.5q-42 -22 -95 -36q76 -16 142.5 -57.5 t113.5 -98.5t75 -128t28 -151q0 -92 -36 -173t-99.5 -142t-147.5 -96t-178 -35q-96 0 -179 35t-145.5 96t-98.5 142t-36 173zM119 442q0 -86 33.5 -162.5t93 -134t138.5 -90t169 -32.5t169 32.5t138.5 90t94 134t34.5 162.5t-34.5 163t-94 134.5t-138.5 90t-169 32.5h-14 q-12 0 -23.5 1t-21.5 3q-29 -8 -75 -23.5t-87 -37.5q-94 -55 -153.5 -151.5t-59.5 -211.5zM211 1202q0 -66 26.5 -122t73.5 -99t108.5 -67.5t133.5 -24.5h4h26.5t24.5 -2q29 8 64 20.5t61 28.5l17 10q66 43 105.5 109.5t39.5 146.5q0 63 -26.5 120.5t-73.5 100.5t-109.5 68 t-132.5 25q-72 0 -133.5 -25t-108.5 -68t-73.5 -100.5t-26.5 -120.5z" />
<glyph unicode="9" horiz-adv-x="1155" d="M100 1085q16 100 63.5 184.5t116 146t153.5 95t175 33.5q119 0 206 -55t142.5 -145.5t82 -207t26.5 -239.5q0 -53 -8 -120.5t-30.5 -144.5t-62.5 -158t-104 -163q-66 -82 -146.5 -141t-162.5 -97t-153.5 -55.5t-116.5 -17.5v23q31 0 93 14t139 48t160 89t154 139 q88 113 144.5 237t66.5 296q-23 -98 -77 -174t-128.5 -124t-162.5 -66.5t-176 -4.5q-100 16 -181.5 71.5t-134.5 138.5t-74.5 185.5t-3.5 212.5zM123 1081q-16 -104 4 -202.5t71.5 -177t128 -132t171.5 -69.5q106 -18 203.5 12.5t170 95t115.5 155.5t43 193 q0 94 -23.5 194.5t-73.5 182.5t-128 134.5t-189 52.5q-88 0 -169.5 -32t-148.5 -89.5t-113 -138.5t-62 -179z" />
<glyph unicode="?" horiz-adv-x="681" d="M12 1415q61 61 137 95t168 34h2q70 0 131.5 -26.5t107.5 -71.5t72.5 -106.5t26.5 -131.5q0 -80 -34.5 -147.5t-92.5 -114.5q-113 -92 -182 -247.5t-69 -342.5h-25v4q0 193 72.5 352.5t189.5 254.5q53 43 85 105.5t32 135.5q0 63 -24.5 120.5t-67.5 99.5t-100.5 67 t-121.5 25h-8q-82 -4 -156.5 -38t-129.5 -93q-4 6 -6.5 13t-6.5 13zM254 2v193h25v-193h-25z" />
<glyph unicode="A" horiz-adv-x="1228" d="M53 -2l543 1442h35l545 -1442h-27l-193 510h-684l-190 -510h-29zM281 530h667l-336 885z" />
<glyph unicode="B" horiz-adv-x="1239" d="M156 0v1436h563q70 0 130 -27t105 -75t72 -111.5t27 -137.5q0 -115 -62.5 -203.5t-161.5 -123.5q63 -12 119 -46t95.5 -84t63 -113.5t23.5 -135.5q0 -78 -28.5 -147.5t-77.5 -121t-114.5 -81t-139.5 -29.5h-614zM180 25h588q70 0 130 27.5t106.5 75.5t73 112.5 t26.5 138.5t-26.5 139.5t-73 114.5t-106.5 76.5t-130 27.5h-588v-712zM180 764h537q63 0 119.5 25.5t99.5 68.5t67.5 101.5t24.5 125.5q0 68 -24.5 127.5t-67.5 103.5t-99.5 69.5t-119.5 25.5h-537v-647z" />
<glyph unicode="C" horiz-adv-x="1327" d="M98 717q0 150 51.5 279.5t138.5 227t204.5 154t252.5 56.5q141 0 266.5 -65.5t217.5 -176.5l-19 -18q-86 111 -204.5 173t-260.5 62q-129 0 -242.5 -54.5t-197.5 -148.5t-133 -220t-49 -269q0 -141 49 -267t133 -220.5t197.5 -149.5t242.5 -55q139 0 260 63.5t207 173.5 l19 -18q-94 -111 -218 -176.5t-268 -65.5h-2q-133 0 -250.5 56.5t-205.5 152.5t-138.5 227t-50.5 279z" />
<glyph unicode="D" horiz-adv-x="1282" d="M152 0v1434h389q133 0 251.5 -56.5t206.5 -154t139.5 -228.5t51.5 -278t-51.5 -278.5t-140.5 -228.5t-207.5 -153.5t-253.5 -56.5h-385zM176 25h373q127 2 238.5 57t194.5 148.5t131 219t48 267.5q0 143 -49 269t-133 220t-196.5 148.5t-241.5 54.5h-365v-1384z" />
<glyph unicode="E" horiz-adv-x="999" d="M182 2v1432h817v-25h-790v-647h506v-25h-506v-710h788v-25h-815z" />
<glyph unicode="F" horiz-adv-x="1001" d="M182 0v1434h819v-25h-794v-647h506v-25h-506v-737h-25z" />
<glyph unicode="G" horiz-adv-x="1392" d="M115 715q0 150 51 281.5t140 230t208 156t254 57.5q145 0 271 -65.5t218 -178.5l-16 -18q-90 111 -212 174t-261 63q-129 0 -243.5 -55t-199.5 -150.5t-134.5 -222.5t-49.5 -272q0 -143 49.5 -270.5t134.5 -221.5t199.5 -149.5t243.5 -55.5q137 0 257 61.5t206 166.5v461 h-436v24h460v-495q-92 -111 -217 -176.5t-270 -65.5q-135 0 -254 56t-208 154.5t-140 229.5t-51 281z" />
<glyph unicode="H" horiz-adv-x="1351" d="M180 0v1434h25v-672h944v672h25v-1434h-25v737h-944v-737h-25z" />
<glyph unicode="I" horiz-adv-x="333" d="M180 0v1434h25v-1434h-25z" />
<glyph unicode="J" horiz-adv-x="786" d="M0 125l23 14q45 -53 111.5 -84.5t141.5 -31.5q66 0 125.5 24.5t103.5 67.5t69.5 99t25.5 120v1075h-387v25h412v-1102q0 -70 -28 -131.5t-75 -106.5t-110.5 -70.5t-135.5 -25.5q-84 0 -154.5 36t-121.5 91z" />
<glyph unicode="K" horiz-adv-x="1280" d="M178 0v1434h25v-936l921 936h31l-627 -637l629 -797h-31l-614 780l-309 -315v-465h-25z" />
<glyph unicode="L" horiz-adv-x="909" d="M176 0v1434h25v-1409h708v-25h-733z" />
<glyph unicode="M" horiz-adv-x="1904" d="M111 0l407 1434h29l405 -1393l406 1393h28l408 -1434h-27l-395 1391l-405 -1391h-29l-406 1391l-395 -1391h-26z" />
<glyph unicode="N" horiz-adv-x="1329" d="M174 0v1434h25l934 -1391v1391h24v-1434h-24l-934 1391v-1391h-25z" />
<glyph unicode="O" horiz-adv-x="1533" d="M119 719q0 147 51 278t138 228.5t205 154t253 56.5t254 -56.5t206 -154t138 -228.5t51 -278q0 -150 -51 -281t-138 -228t-206 -153.5t-254 -56.5t-253 56.5t-205 153.5t-138 228t-51 281zM143 719q0 -143 49.5 -270t134.5 -221.5t197.5 -148.5t241.5 -54t243.5 54 t198.5 148.5t133.5 221t49.5 270.5q0 143 -49.5 269t-133.5 220.5t-198.5 148.5t-243.5 54t-241.5 -54t-197.5 -148.5t-134.5 -220.5t-49.5 -269z" />
<glyph unicode="P" horiz-adv-x="1003" d="M172 0v1434h414q84 0 157.5 -32t129 -87t87 -129t31.5 -158q0 -80 -32.5 -153.5t-88 -130t-129 -90t-155.5 -33.5h-389v-621h-25zM197 645h389q78 0 147.5 30t121.5 82t82 121.5t30 149.5t-30 148.5t-82 121t-121.5 82t-147.5 29.5h-389v-764z" />
<glyph unicode="Q" horiz-adv-x="1527" d="M113 715q0 137 52 267t141 231.5t209 162t255 60.5t252 -60.5t203 -162t135 -231.5t49 -267q0 -119 -34 -228.5t-96 -200.5t-152.5 -159t-200.5 -102h422v-25h-564h-14q-135 0 -255 58.5t-209 157.5t-141 228t-52 271zM137 715q0 -141 52.5 -266t140.5 -219.5 t202.5 -149.5t237.5 -55q127 6 239.5 61t195.5 148.5t131 216t48 264.5q0 141 -49 267t-134 221t-196.5 151.5t-234.5 56.5t-237.5 -56.5t-202.5 -151.5t-140.5 -221t-52.5 -267z" />
<glyph unicode="R" horiz-adv-x="1107" d="M170 0v1434h414q84 0 157.5 -32t129 -87t87 -129t31.5 -158q0 -80 -29.5 -151.5t-80 -126t-119 -88t-148.5 -39.5l353 -623h-29l-352 621h-389v-621h-25zM195 645h360h29q78 0 147.5 30t121.5 82t82 121.5t30 149.5t-30 148.5t-82 121t-121.5 82t-147.5 29.5h-15h-374 v-764z" />
<glyph unicode="S" horiz-adv-x="1009" d="M94 207l19 12q16 -20 34.5 -37.5t40.5 -38.5q57 -53 136 -85.5t172 -32.5q86 0 162.5 28.5t134 77.5t90 115.5t32.5 142.5q0 66 -24.5 122t-68.5 100t-103.5 73t-128.5 41l-133 23q-147 29 -236.5 114.5t-89.5 220.5q0 82 29.5 147.5t85 112t131.5 71t168 24.5 q104 0 190 -32t152 -97l-17 -17q-59 59 -143 90t-182 31q-86 0 -158 -23.5t-123 -66.5t-79.5 -103.5t-28.5 -136.5q0 -70 26.5 -123t69.5 -92t97 -63.5t110 -32.5l129 -22q70 -10 133 -41t112.5 -77t78 -107.5t28.5 -135.5q0 -72 -33 -141.5t-91 -124.5t-140 -89t-180 -34 q-102 0 -184.5 36t-141.5 91q-23 23 -42 41t-34 39z" />
<glyph unicode="T" horiz-adv-x="1064" d="M4 1409v25h1055v-25h-512v-1409h-25v1409h-518z" />
<glyph unicode="U" horiz-adv-x="1251" d="M147 463v971h25v-971q0 -90 35 -170t96.5 -139.5t144 -94t177.5 -34.5q94 0 177 34.5t145.5 94t98 139.5t35.5 170v971h25v-971q0 -96 -38 -180t-104.5 -146.5t-153.5 -99.5t-185 -37t-185.5 37t-152 99.5t-102.5 146.5t-38 180z" />
<glyph unicode="V" horiz-adv-x="1118" d="M55 1434h27l477 -1393l479 1393h27l-492 -1434h-28z" />
<glyph unicode="W" horiz-adv-x="1902" d="M100 1434h27l405 -1393l406 1393h27l405 -1393l406 1393h26l-418 -1434h-28l-406 1393l-403 -1393h-29z" />
<glyph unicode="X" horiz-adv-x="1280" d="M135 1434h27l479 -707l477 707h27l-488 -729l473 -705h-26l-463 686l-465 -686h-26l475 705z" />
<glyph unicode="Y" horiz-adv-x="1136" d="M35 1434h28l527 -707l477 707h27l-492 -732v-702h-24v702z" />
<glyph unicode="Z" horiz-adv-x="1103" d="M10 0l1028 1409h-972v25h1026l-1035 -1409h1022v-25h-1069z" />
<glyph unicode="a" horiz-adv-x="1015" d="M98 272q0 49 23.5 93.5t63.5 79t93.5 59t112.5 35.5q74 12 120 19t71 11q29 6 41 9q45 8 85 28.5t68.5 48t45 60.5t16.5 67q0 55 -28 104.5t-74 86.5t-106.5 57.5t-127.5 20.5q-70 0 -130.5 -21.5t-105.5 -59.5t-71.5 -89.5t-26.5 -108.5h-25q0 63 29 118.5t78 96.5 t114.5 64.5t139.5 23.5t137.5 -22.5t111.5 -61.5t76.5 -91t30.5 -114v-456v-197q0 -33 4 -57.5t8 -40.5q6 -20 13 -35h-25q-4 6 -14 42t-10 89v41q-41 -72 -135.5 -122t-219.5 -50q-80 0 -149.5 21.5t-121.5 58.5t-82 86t-30 106zM123 272q0 -51 28.5 -96t76.5 -79 t113.5 -53t139.5 -19t138.5 19t112.5 53t76 80t28 97v422q-29 -49 -83.5 -89t-125.5 -52l-232 -39q-121 -23 -196.5 -88.5t-75.5 -155.5z" />
<glyph unicode="b" horiz-adv-x="1171" d="M145 0q6 14 13 35q4 16 8 39.5t4 56.5v1428h25v-850q20 80 65 147.5t106.5 116.5t135 76.5t155.5 27.5q100 0 189.5 -42t155 -115.5t104.5 -172t39 -208.5q0 -111 -39 -209.5t-104.5 -172t-154.5 -115.5t-190 -42q-82 0 -155.5 27.5t-134 78t-105.5 118t-67 147.5v-242 q0 -53 -11.5 -89t-13.5 -40h-25zM195 526q2 -104 38.5 -195t100 -159t146.5 -107.5t177 -39.5t178.5 40.5t148 110.5t100 163t36.5 200q0 106 -36.5 199t-100 163t-147.5 111t-179 41q-94 0 -177 -40t-146.5 -107.5t-100 -159t-38.5 -195.5v-25z" />
<glyph unicode="c" horiz-adv-x="1060" d="M102 539q0 111 39 208t104.5 170.5t154.5 115.5t192 42q109 0 205 -51t168 -143l-21 -15q-72 90 -161 137.5t-191 47.5q-96 0 -181 -41t-147.5 -111t-99.5 -163t-37 -197q0 -106 37 -199.5t99.5 -163.5t147.5 -110.5t181 -40.5q102 0 193.5 48t156.5 128l21 -11 q-70 -88 -166.5 -139t-204.5 -51q-102 0 -191.5 42t-155 115.5t-104.5 172t-39 209.5z" />
<glyph unicode="d" horiz-adv-x="1171" d="M27 539q0 111 38.5 209t104.5 170.5t155 114.5t189 42q82 0 155.5 -27.5t134 -75.5t104.5 -114.5t69 -146.5v848h24v-1428q0 -33 4.5 -56.5t8.5 -39.5q6 -20 12 -35h-25q-4 4 -15 40t-11 87v235q-25 -80 -69 -147.5t-104.5 -114.5t-133 -73.5t-154.5 -26.5 q-100 0 -189 42t-155 115.5t-104.5 172t-38.5 209.5zM51 539q0 -102 37 -195.5t100.5 -164t147.5 -112.5t178 -42t178 39.5t146.5 107.5t99.5 159t39 195v25q-2 104 -39 195.5t-99.5 159t-146.5 106.5t-178 39q-96 0 -180 -40t-146.5 -110t-99.5 -163t-37 -199z" />
<glyph unicode="e" horiz-adv-x="1077" d="M104 537q0 111 34 208t94.5 169.5t144.5 115.5t184 45h4q205 0 307 -139q101 -136 101 -378v-9h-844v-12q0 -104 37 -197.5t99.5 -163.5t146.5 -110.5t180 -40.5q102 0 191 46t155 128l18 -17q-70 -86 -162 -133t-202 -49q-102 0 -190.5 43t-155 115.5t-104.5 170 t-38 208.5zM129 573h819q-2 106 -24.5 194.5t-68.5 151t-118.5 97.5t-173.5 35q-90 0 -168 -38t-135 -102.5t-91 -151.5t-40 -186z" />
<glyph unicode="f" horiz-adv-x="583" d="M152 0v1210q0 53 22.5 100.5t58.5 82.5q6 6 16.5 14t29.5 18q14 8 29.5 14.5t31.5 10.5q25 6 51 6h21q53 -2 89 -14t83 -43l-13 -19q-41 27 -74.5 38.5t-86.5 13.5h-13q-45 0 -85 -17.5t-70.5 -48.5t-48 -72t-17.5 -86v-401h201v-25h-201v-782h-24z" />
<glyph unicode="g" horiz-adv-x="1181" d="M63 537q0 111 33 209t96.5 170.5t152.5 115.5t204 43q90 0 168 -29.5t138 -81t100 -117t55 -134.5v108q0 53 10 89t14 42h25q-6 -14 -12 -34q-4 -16 -8.5 -41t-4.5 -58v-760q0 -111 -38 -208t-103.5 -168.5t-154.5 -112.5t-189 -41q-139 0 -264 88l18 18 q55 -39 117.5 -60t128.5 -21q98 0 181 39.5t144.5 108.5t97.5 161t38 196v306q-18 -76 -58.5 -142.5t-99.5 -116t-136 -78t-167 -28.5q-115 0 -204 42t-152.5 115.5t-96.5 171t-33 208.5zM88 537q0 -111 33 -204t93 -162t145.5 -107.5t189.5 -38.5t188 39.5t144.5 107.5 t94.5 159t34 195v21q0 109 -35 201t-95.5 159.5t-145.5 105.5t-185 38q-104 0 -189.5 -39t-145.5 -108.5t-93 -163t-33 -203.5z" />
<glyph unicode="h" horiz-adv-x="1054" d="M158 0v1542h24v-735q14 51 50 99t89.5 86t121 60.5t147.5 22.5q90 0 168 -31.5t135 -86t90 -128t33 -157.5v-672h-25v672q0 78 -29.5 147.5t-84 120.5t-128 81t-159.5 30q-84 0 -159 -28t-130 -79t-87 -120.5t-32 -151.5v-672h-24z" />
<glyph unicode="i" horiz-adv-x="284" d="M131 0v1075h25v-1075h-25zM131 1282v139h25v-139h-25z" />
<glyph unicode="j" horiz-adv-x="348" d="M0 -442q61 29 102 69q41 47 67 103.5t26 122.5v1198h-193v24h217v-1222q0 -72 -26.5 -132.5t-73.5 -111.5q-47 -47 -103 -70z" />
<glyph unicode="k" horiz-adv-x="966" d="M158 0v1542h24v-1089l633 622h37l-428 -420l541 -655h-33l-526 637l-224 -217v-420h-24z" />
<glyph unicode="l" horiz-adv-x="339" d="M158 0v1550h24v-1550h-24z" />
<glyph unicode="m" horiz-adv-x="1830" d="M150 1067h22q4 -4 15.5 -40t11.5 -89v-78q20 45 56 85t83 68.5t103.5 45t117.5 16.5q66 0 125 -18.5t108.5 -51t84 -77.5t53.5 -99q16 53 51 98.5t84 78t108 51t125 18.5q80 0 150 -25.5t122 -70.5t81.5 -104.5t29.5 -129.5v-745h-24v745q0 63 -27.5 119t-77 98 t-115 65.5t-139.5 23.5t-138 -23.5t-113.5 -65.5t-77 -97.5t-27.5 -119.5v-745h-24v745q0 63 -29 119t-77 98t-113.5 65.5t-139.5 23.5t-139.5 -23.5t-114.5 -65.5t-77.5 -97.5t-28.5 -119.5v-745h-25v936q0 31 -4 55.5t-8 40.5q-6 20 -12 35z" />
<glyph unicode="n" horiz-adv-x="1165" d="M143 1061h25q4 -6 14.5 -42t10.5 -87v-123q47 117 153.5 191.5t251.5 74.5q88 0 167 -31.5t136 -87t91 -128t34 -156.5v-672h-25v672q0 80 -31.5 148.5t-86 119.5t-128 81t-157.5 30t-156.5 -29t-128 -80t-88 -118.5t-32.5 -145.5v-678h-25v930q0 31 -4 55.5t-8 40.5 q-6 20 -13 35z" />
<glyph unicode="o" horiz-adv-x="1187" d="M109 539q0 111 37.5 209t104 170.5t155 114.5t188.5 42t189 -42t156 -114.5t104.5 -171t37.5 -208.5q0 -111 -37.5 -209.5t-104.5 -172t-156 -115.5t-189 -42t-188.5 42t-155 115.5t-104 172t-37.5 209.5zM133 539q0 -106 36 -199.5t99.5 -163.5t146.5 -110.5t179 -40.5 t180 40.5t147.5 110.5t99.5 163t36 200q0 106 -36 199t-99.5 163t-147.5 110t-180 40t-179 -40t-146.5 -110t-99.5 -163t-36 -199z" />
<glyph unicode="p" horiz-adv-x="1226" d="M139 948h25q4 -4 13 -40t9 -91v-110q25 76 69 143.5t104.5 117.5t134 78.5t155.5 28.5q100 0 188.5 -42t155 -114.5t104.5 -171t38 -208.5q0 -111 -38 -209.5t-104.5 -172t-154.5 -115.5t-189 -42q-80 0 -153.5 27.5t-134 77t-105.5 117t-70 147.5v-848h-24v1313 q-2 53 -12 84zM186 526q2 -104 39 -195t100.5 -160t146.5 -107.5t177 -38.5t178 39.5t147.5 109.5t99.5 164t36 201q0 106 -36 199t-99.5 163t-147.5 110t-178 40t-177 -39t-146.5 -107.5t-100.5 -160t-39 -195.5v-23z" />
<glyph unicode="q" horiz-adv-x="1153" d="M25 537q0 111 37.5 208t103 169.5t154 114.5t188.5 42q80 0 153.5 -27.5t134 -76.5t105.5 -117t70 -148v115q0 53 8 89t12 42h25l-4 -8q-4 -12 -8 -27q-4 -14 -7.5 -32.5t-3.5 -46.5v-1311h-22v844q-25 -80 -69 -147.5t-104.5 -117t-134 -76t-155.5 -26.5 q-100 0 -188.5 42t-154 114.5t-103 171t-37.5 209.5zM49 537q0 -106 36 -199.5t98.5 -163.5t145.5 -110.5t179 -40.5q88 0 172 38.5t147.5 105t102.5 155t39 188.5v57q0 88 -36 174t-99.5 155t-147.5 111t-178 42q-96 0 -179 -41t-145.5 -111t-98.5 -163t-36 -197z" />
<glyph unicode="r" horiz-adv-x="483" d="M109 948h24q4 -4 11.5 -30.5t11.5 -65.5l2 4q12 35 28 62.5t43 54.5q47 47 112 73.5t142 28.5v-24q-68 0 -131 -27t-104 -68t-65.5 -98t-24.5 -129v-729h-25v817q0 31 -4 55.5t-8 40.5q-6 20 -12 35z" />
<glyph unicode="s" horiz-adv-x="962" d="M98 276h25q0 -53 27.5 -98t76.5 -80t114 -54t138 -19q74 0 138.5 19t112.5 53t77 78t29 95q0 45 -21.5 85t-58.5 72t-85 53.5t-104 31.5q-63 12 -124.5 23.5t-96.5 21.5q-92 23 -156 70q-35 29 -52 69.5t-17 81.5v4q0 59 28.5 111.5t77.5 92.5t114 63.5t138 23.5 q74 0 139.5 -23.5t114.5 -64.5t77 -96t28 -117h-27q0 57 -26.5 107.5t-71.5 88.5t-105.5 59.5t-128.5 21.5t-129 -20.5t-106 -57.5t-72 -85t-27 -104q0 -37 13.5 -71.5t44.5 -63.5q29 -27 71.5 -43t85.5 -26q16 -4 33 -7.5t40.5 -8.5t56 -11t81.5 -14q61 -12 114.5 -37 t92.5 -59.5t60.5 -78t21.5 -92.5q0 -57 -29.5 -106t-82 -86t-121 -57.5t-148.5 -20.5t-148.5 21.5t-120.5 59.5t-82 88t-30 107z" />
<glyph unicode="t" horiz-adv-x="546" d="M53 1051v24h113v248l24 25v-273h357v-24h-357v-770q0 -139 54.5 -197.5t165.5 -58.5q25 0 58.5 4t78.5 20v-22q-41 -16 -78 -21.5t-59 -5.5q-123 0 -183.5 66.5t-60.5 214.5v770h-113z" />
<glyph unicode="u" horiz-adv-x="1050" d="M143 328v747h25v-747q0 -63 27.5 -118.5t77 -96.5t114 -64.5t137.5 -23.5q76 0 141.5 23.5t114.5 64.5t77 96t28 119v747h24v-747q0 -68 -29.5 -128.5t-82 -104.5t-122 -69.5t-151.5 -25.5q-80 0 -148.5 25.5t-120.5 69.5t-82 104.5t-30 128.5z" />
<glyph unicode="v" d="M51 1075h31l430 -1034l430 1034h31l-451 -1075h-22z" />
<glyph unicode="w" horiz-adv-x="1873" d="M92 1075h29l428 -1032l373 1032h28l373 -1036q106 260 214 518t214 518h29l-445 -1075h-24l-375 1030q-92 -258 -187.5 -515t-187.5 -515h-24z" />
<glyph unicode="x" horiz-adv-x="1128" d="M115 0l430 559l-400 516h33l385 -493q96 123 194.5 246.5t194.5 246.5h31l-401 -514l434 -561h-31l-422 541l-418 -541h-30z" />
<glyph unicode="y" d="M88 1075h27l428 -1032l432 1032h24l-557 -1339q-57 -131 -182 -185q-29 -10 -61.5 -17t-67.5 -7l-2 20q31 0 64.5 7.5t60.5 17.5q55 25 100 70t68 104l106 268z" />
<glyph unicode="z" horiz-adv-x="919" d="M16 0l815 1051h-772v24h824l-817 -1050h841v-25h-891z" />
<glyph unicode="&#xa0;" />
<glyph unicode="&#xad;" horiz-adv-x="1114" d="M152 547v24h813v-24h-813z" />
<glyph unicode="&#x2000;" horiz-adv-x="861" />
<glyph unicode="&#x2001;" horiz-adv-x="1722" />
<glyph unicode="&#x2002;" horiz-adv-x="861" />
<glyph unicode="&#x2003;" horiz-adv-x="1722" />
<glyph unicode="&#x2004;" horiz-adv-x="574" />
<glyph unicode="&#x2005;" horiz-adv-x="430" />
<glyph unicode="&#x2006;" horiz-adv-x="287" />
<glyph unicode="&#x2007;" horiz-adv-x="287" />
<glyph unicode="&#x2008;" horiz-adv-x="215" />
<glyph unicode="&#x2009;" horiz-adv-x="344" />
<glyph unicode="&#x200a;" horiz-adv-x="95" />
<glyph unicode="&#x2010;" horiz-adv-x="1114" d="M152 547v24h813v-24h-813z" />
<glyph unicode="&#x2011;" horiz-adv-x="1114" d="M152 547v24h813v-24h-813z" />
<glyph unicode="&#x2012;" horiz-adv-x="1114" d="M152 547v24h813v-24h-813z" />
<glyph unicode="&#x2013;" horiz-adv-x="1325" d="M152 547v24h1024v-24h-1024z" />
<glyph unicode="&#x2014;" horiz-adv-x="2349" d="M152 547v24h2048v-24h-2048z" />
<glyph unicode="&#x202f;" horiz-adv-x="344" />
<glyph unicode="&#x205f;" horiz-adv-x="430" />
<glyph unicode="&#x25fc;" horiz-adv-x="1075" d="M0 0v1075h1075v-1075h-1075z" />
</font>
</defs>
</svg>
