<?xml version="1.0" standalone="no"?>
<!DOCTYPE svg PUBLIC "-//W3C//DTD SVG 1.1//EN" "http://www.w3.org/Graphics/SVG/1.1/DTD/svg11.dtd" >
<svg xmlns="http://www.w3.org/2000/svg" xmlns:xlink="http://www.w3.org/1999/xlink" version="1.1">
<metadata></metadata>
<defs>
<font id="splendid_66bold" horiz-adv-x="1026" >
<font-face units-per-em="2048" ascent="1638" descent="-410" />
<missing-glyph horiz-adv-x="1024" />
<glyph horiz-adv-x="0" />
<glyph horiz-adv-x="682" />
<glyph unicode=" "  horiz-adv-x="1024" />
<glyph unicode="&#x09;" horiz-adv-x="1024" />
<glyph unicode="&#xa0;" horiz-adv-x="1024" />
<glyph unicode="!" d="M373 94v41l12 12v66q86 63 123 63h47q35 0 68.5 -23.5t44.5 -53.5l12 -13v-104q-57 -55 -72 -64q-31 -16 -92 -16h-8q-18 6 -45 8q-6 12 -53 29q-6 16 -19 33q-4 12 -18 22zM373 844v41q10 25 51 63q18 23 76 23h61q43 0 80 -29q2 -4 21 -31q2 -20 16 -28q-4 -14 -19 -76 l-4 -6v-6l9 -13v-55l-13 -12v-86l-16 -8v-172l-17 -9v-78q-41 -39 -75 -38h-56q-39 25 -53 51v82q-18 25 -16 114q-18 27 -17 220q-10 12 -18 30h2z" />
<glyph unicode="&#x22;" d="M225 1513q14 12 19 31q12 4 18 33h117q41 -20 59 -86l13 -12v-35l-13 -21l-2 -71l-14 -9v-98l-19 -8v-158h-12v-6q10 -14 10 -39t-17 -47t-42 -22h-29q-27 0 -55 41v51l8 8v51q-14 23 -12 154q-18 25 -16 100q-14 23 -13 143zM621 1399v114q18 23 69 64h53q23 -12 62 -33 q8 -12 24 -35v-151l-12 -10l-8 -33l-8 -10v-70l-8 -2l4 -4v-25q-6 -8 -11 -12l23 -27l-25 -16v-145q-18 -18 -39 -31h-32q-18 0 -41 20l-8 58q-8 14 -13 28l6 21l7 6v35q-14 23 -13 121l-18 8v119z" />
<glyph unicode="%" d="M59 725v102l9 11l8 47q25 35 55 63q8 14 10 41q14 10 19 29q39 23 116 65h99v-6h14l-2 2l49 -16q80 -80 84 -135q8 -14 12 -29l-6 -25l-8 -6v-69l-16 -6q-4 -10 -17 -29q-6 -25 -20 -39q0 -18 -12 -29q-6 -27 -46 -53.5t-42 -48.5l-84 -41h-11v22q-8 -18 -4 -22 q-66 8 -96 18q-55 20 -68 64q-35 27 -43 90zM109 12q14 12 43 41q2 12 6 43q14 10 18 25l10 10q2 10 4 25l29 22q2 12 17 35q6 14 14 26.5t16 24.5t17 23q6 20 51 57l6 27q10 14 25 28l8 37l12 17l6 24q16 14 37 53q8 4 12 23q12 6 19 27l22 10l6 39q12 16 27 35q8 35 37 61 q4 12 14 23q4 16 31 69l16 33l-2 -6l21 20l18 6v66q20 4 21 14q12 16 47 41q0 14 2 49q8 4 18 39l39 37q6 14 8 39l13 16q4 10 16 29q12 57 57 57q14 0 39 -8l19 -18v-80q-16 -12 -21 -27l-10 -8q-2 -10 -4 -24q-14 -10 -19 -25q-12 -20 -43 -59q-8 -25 -30 -45 q-6 -27 -19 -35q-2 -12 -16 -33q-2 -14 -13.5 -32.5t-35.5 -43.5q-6 -12 -15 -22q-10 -23 -26 -66q-43 -49 -49 -88q-12 -6 -15 -29q-14 -23 -45 -59l-4 -20q-12 -16 -28 -35q-6 -14 -17 -25q-8 -29 -44 -73t-46 -87l-22 -20l-11 -41q-12 -4 -16 -23q-6 -4 -35 -63t-29 -66 q-14 -10 -18 -24l-10 -10q-2 -10 -4 -25q-14 -12 -17 -23l-10 -10l-12 -26l-6 -7q-18 -51 -76 -51q-18 0 -53 41v45zM160 737q8 -14 12 -39l23 -22q88 -14 100 -14h4q10 8 25 36l26 27q35 14 41 51q12 6 15 27l8 8v92l4 -2l-12 19q-4 16 -44 47l-26 6l-43 -6 q-61 -45 -74.5 -60.5t-40.5 -81.5l-6 -6v-78zM520 301v31q4 8 9.5 21.5t17.5 33.5q2 31 10 57l8 9q33 68 98.5 109.5t137.5 41.5q31 0 102 -41q4 -4 37 -26q4 -18 16 -25q4 -14 7 -27l14 -12v-67l-12 -21l-2 -111l-17 -12q-2 -6 -2 -18q-16 -12 -20 -27q-12 -10 -17 -24 q-41 -41 -81 -77t-111 -36q-133 0 -166 88q-10 10 -17 35l-10 10v86zM627 264q8 -35 28.5 -52t42.5 -36q61 25 115 78q6 12 16 25q4 14 15 24q2 16 16 47q2 35 8 56l9 8v4q-10 12 -17 33q-8 8 -16 32l-15 13h-36q-45 0 -109 -64q-10 -29 -33 -49q-4 -14 -6 -37 q-18 -8 -18 -53l4 -17z" />
<glyph unicode="&#x26;" d="M100 279l6 16l15 8l-15 14l54 54q10 23 24 69q18 14 31 21l4 20q25 18 57 47v17v18q-27 27 -32 49l-27 23l-2 22h-47v50h-16v59h45v6l20 -2v100q49 74 119 111h145q51 0 125 -74l4 -20l15 -17v-65q-16 -6 -19 -29l21 4l-4 -82q-6 -6 -19 -30q-4 -4 -80 -78 q-39 -39 -96 -68q20 -20 42 -44.5t28 -47.5q8 -10 14 -22l23 -15q31 -61 100 -121l8 11v8q0 14 4 37l17 22v2v41l26 10l8 33l66 33q27 0 49 -4v53h59v-59h-22q35 -6 55 -6l33 -33v-14q0 -18 -45 -84h-109q-10 -14 -22 -33q-6 -25 -19 -33q-2 -12 -14 -31v-22v-23 q31 -37 193 -102v-72q-31 -20 -72 -20q-78 0 -133 32q-2 4 -37 29q-2 14 -17.5 31.5t-29.5 17.5l-23 -12q-16 -16 -51 -47q-16 -2 -52 -17.5t-58 -15.5h-123q-27 0 -66 21q-8 10 -14 22q-16 14 -43 33q-4 14 -17 24q-4 18 -34 33q-2 35 -7 60l-10 12l-6 31l-16 6 q-14 14 -13 33zM252 227q8 -14 14 -39q8 -8 29 -20q0 -23 35 -39t61 -16h53q-2 0 41 12q14 12 47 31q8 10 29 30h6q-29 10 -39 33q-31 18 -51 55q-14 20 -41.5 58.5t-58.5 95.5l-31 27q-33 -18 -39 -35q-14 -12 -31 -39q-18 -33 -24 -41v-113zM272 754l37 -35l4 -23l13 -10 q2 -16 6 -33l8 -8q4 -12 31 -39q41 23 123 68l8 22q16 20 53 60h-23q0 39 -6 69l-43 41l-4 11q-29 20 -49 20q-39 0 -100 -37q-6 -12 -15 -20q-4 -14 -6 -41q-14 -8 -18 -35z" />
<glyph unicode="(" d="M336 770l8 10l8 58l13 10v72q18 6 22 24q12 4 16 31q10 6 15 41q14 8 18 20l10 11q2 10 5 22l12 10q2 10 4 23q29 41 94 117q10 33 53 53q35 18 74 18l37 -18v-92q-39 -18 -43 -23q-23 -14 -27 -37l-30 -10q-12 -23 -45 -55q-12 -23 -33 -54q-6 -14 -14.5 -25t-16.5 -22 q-2 -20 -10 -43l-6 -6q-6 -16 -13.5 -33.5t-11.5 -60.5l-10 -8v-68l-16 -8v-129l-7 -2l7 -35l16 -12v-64q14 -29 18 -59q12 -12 17 -49q10 -16 14 -33q10 -8 16 -33q10 -8 17 -32l8 -7q6 -14 37 -53q2 -10 63 -72q4 -14 15 -24q37 -8 53 -39l4 -33l-4 -39q-27 -20 -37 -20 h-53q-70 47 -86 74q-20 14 -47 38l-4 23l-13 10q-2 12 -16 25q-2 14 -12 22q-6 16 -19 27l-4 12q-2 2 -37 72l4 -4q-10 18 -18 41l-12 16l-7 43l-14 2v80q-14 25 -12 297z" />
<glyph unicode=")" d="M279 1219q0 6 6 38q29 23 59 23q43 0 88 -47l70 -74l6 -20q12 -6 31 -21l4 -24l12 -11l4 -22l10 -8q4 -14 19 -25l4 -24l10 -11q4 -12 19 -22q4 -39 16 -56q2 -12 6 -22l-16 10q18 -16 30 -47l19 -10v-115q10 -25 12 -180l-12 -12l-2 -88l-17 -7q0 -16 -4 -36l-12 -19v-8 q0 -14 -4 -37q-8 -14 -27 -45q-4 -12 -6 -35q-6 -8 -14 -18l-4 -10l-11 -11q-2 -10 -4 -24q-14 -10 -20 -27q-10 -8 -12 -20q-33 -45 -111 -121q-18 -51 -59 -51h-50q-18 6 -36 20v86q115 76 114 115q14 14 38 54t40 52q2 14 17 35q6 12 14 23q2 25 10 51l6 6q2 20 10 45 l11 6v125l12 8v86q-14 23 -12 115q-16 29 -21 51q-12 18 -16 33q-25 33 -33 94q-25 31 -74 86q-4 14 -32 43l-2 8q-29 16 -80 56q-6 33 -6 39z" />
<glyph unicode="+" d="M203 434v109h276v256q16 18 35 30q20 4 21 5q45 0 73 -56v-104l-10 -19l2 -28l8 -13v-47l10 -10l-16 -16q45 0 143 -4q92 -2 144 -2v-101l-37 -16q-106 -8 -135 -8q-10 0 -31.5 4t-32.5 4q-20 0 -53 -6v-47l-6 2l14 -23v-43l-6 -8l6 -6v-125q-12 -20 -33 -33 q-31 -4 -30 -4q-45 0 -66 39v244q-35 10 -67 10q-8 0 -26.5 -4t-27.5 -4q-10 0 -120 8z" />
<glyph unicode="," d="M360 86v139l31 33q51 49 135 49q14 0 41 -10l15 -12l22 -6q31 -25 64 -62v-59l-9 -8l9 -9v-135l-4 -2q-2 -10 -15 -70l-8 -10l-10 -55q-10 -6 -15 -39q-14 -10 -18 -25q-12 -10 -16 -24q-12 -10 -17 -25q-25 -20 -35 -20h-51q-33 14 -53 43v88q20 12 29 20q18 12 20 27 q10 16 27 33q2 18 10 37l6 6l2 18h-12h-57q-6 12 -52 29q-14 27 -39 49z" />
<glyph unicode="." horiz-adv-x="1032" d="M338 123v139q14 12 33 45q14 6 18 27l82 41h18q70 0 109 -15q31 -12 92 -53l8 -26l13 -13v-129l-15 -12q-2 -10 -6 -27q-12 -6 -16 -20q-70 -72 -152 -72q-76 0 -166 78l-8 25z" />
<glyph unicode="/" d="M82 -35q2 2 25.5 43t27.5 46t15 40q14 18 43 49q2 10 6 25q12 10 16 25l10 8q2 12 17 30q2 12 16 35q4 12 16 25q4 12 17 24q20 39 59 121q14 18 39 53q10 29 33 50q4 12 6 34q10 16 29 43q2 6 4 21q14 14 16 27q6 4 33 34l-4 -2q8 16 15 26.5t18 20.5q2 14 16 35 q6 14 14.5 26.5t18.5 22.5q4 18 30 56q4 14 15 32q2 2 14 41q10 6 15 25q12 6 16 25q12 6 16 20q12 10 17 25l10 8q2 10 4 24q14 10 20 27q10 8 15 23l10 8l4 16l17 21l-5 -2q8 14 14.5 25t18.5 32q10 14 29 45l29 16h57l33 -32v-43l-13 -15q-16 -29 -39 -92 q-14 -20 -45 -57q-2 -10 -4 -25q-14 -10 -18 -26q-12 -8 -14 -19l-13 -14q-4 -10 -16 -29q-2 -12 -17 -35q-4 -12 -16 -22q-4 -16 -14 -33q-6 -23 -21 -37q0 -25 -61 -96q-18 -27 -43 -84q-12 -10 -17 -25l-8 -8q-4 -14 -6 -33q-14 -14 -16 -24l-13 -10q-2 -10 -4 -25 q-12 -10 -32 -33h4q-8 -14 -13.5 -24.5t-19.5 -30.5q-2 -12 -16 -35q-6 -14 -14.5 -26.5t-18.5 -22.5q-4 -23 -17 -33q-10 -31 -34 -51l-9 -29q-10 -4 -14 -30q-12 -8 -16 -23q-12 -10 -17 -27q-8 -4 -14 -14l16 -14q-14 -10 -35 -35l-10 -8q-2 -10 -4 -23l-12 -10 q-2 -10 -4 -23l-29 -26q-4 -23 -14 -31q-4 -16 -10 -35l-9 -8q-6 -14 -34 -53h-56q-27 0 -55 43v57z" />
<glyph unicode="0" d="M131 348v225l10 21q2 25 9 61q12 10 16 29q10 4 14 14h-37l47 47q4 12 7 35q29 43 96 125q27 4 88 41q51 35 127 35q41 0 133 -29q29 -29 61 -65q8 -2 64 -10l-31 -29l64 -35q4 -16 20 -29v-18q-2 -43 29 -70q4 -14 24 -20v-72q10 -25 13 -289l-13 -10l-8 -39 q-10 -4 -14 -30q-8 -18 -29 -50q-2 -8 -6 -22q-12 -10 -76 -84q-51 -57 -88 -64q-31 -33 -133 -32q-10 0 -76 4l-10 10q-111 25 -186 100q-2 14 -13 23q-6 16 -16 24q-6 16 -18 27l-4 12q-10 18 -31 52l-8 45l4 -2l-13 18l-8 41zM248 438q14 -18 6 -45q4 -23 8 -55 q10 -12 17 -49l26 -25q2 -27 6 -39l13 -12q-2 -20 28 -33q6 -31 70 -55q53 -20 92 -21q37 0 97.5 28t66.5 61q12 10 14 22l13 10q2 10 4 23l10 8q6 25 29 72l8 4v71l16 7q0 16 6 49q10 6 17 24l-11 70l4 -2l-12 16q-6 20 -8 54q-10 12 -16 32q-12 20 -43 58q-4 31 -33 57 q-6 39 -135 88h-17q-10 0 -32.5 -5t-36 -7t-27.5 -4l-43 -29l-20 2q-23 0 -27 -29q-14 -12 -16 -24l-13 -10l-4 -15l-16 -20l6 2q-4 -12 -16 -31q-2 -20 -17 -57q-4 -33 -8 -56l-6 -10v-125z" />
<glyph unicode="1" horiz-adv-x="1032" d="M170 891l2 22l47 48h21q10 0 30.5 -4.5t30.5 -4.5q18 8 29 9l112 -3q63 0 121 -18q14 -12 33 -29v-63l-23 -17l21 -18l6 -39l12 -14v-51l-10 -11v-24l-4 2l14 -23v-125l-6 -14l6 -10v-82l-8 -14l-4 -37l2 2q10 -18 10 -37l-8 -8l-2 -68l10 -12v-31l11 -10l-19 -19v-65 l12 -6h273l22 -15l15 -22v-55q-16 -6 -23 -35q-113 0 -340 -8.5t-340 -8.5q-23 0 -51 21v90l31 33h200q12 0 31 -8q18 2 58 6q0 2 2 4t2 4l-2 6l-9 10v234l4 12l-4 12v398l9 10v12v8q-31 10 -113 11q-18 0 -57 -5.5t-58 -5.5q-96 0 -96 66z" />
<glyph unicode="2" d="M145 37v123l9 10q4 16 8 47l12 21l6 24l25 25q12 27 67 82q6 12 15 24q27 20 86 60q31 18 223 82q27 10 70 38q25 10 24 33q16 12 17 27l10 10q4 12 6 39l-16 12l16 13q-2 18 -6 30l-10 11q0 12 -17 22q0 14 -16 27l-4 20l-52 21l-6 8q-76 23 -98 22q-84 0 -161 -58 t-142 -65v101q145 147 244 147q102 0 168 -20q68 -41 157 -99q2 -14 19 -26q2 -14 4 -25l12 -10q2 -23 19 -31v-190q-14 -10 -19 -37q-16 -10 -16 -25q-16 -10 -19 -24l-37 -25l9 8q-20 -16 -242 -110q-176 -74 -193 -137l-10 -11q-6 -10 -14 -20q-6 -25 -13.5 -40 t-17.5 -36v-10h567q37 -16 52 -43l4 -25l-4 -28q-18 -16 -185 -29q-133 -10 -207 -10l-8 8h-129q-14 0 -39.5 -4t-40.5 -4q-31 0 -106 12q-6 23 -21 35z" />
<glyph unicode="3" d="M76 -78l4 33q18 14 142 34.5t151 51.5q41 4 110.5 53t79.5 53l86 86q4 14 13 31q18 16 32 55l6 7q4 16 11 34l6 5v102q-14 16 -29 43q-72 43 -117 43q-29 0 -81 -15.5t-76 -17.5l2 4l-23 -12h-102q0 41 6 82q31 16 53 63q20 4 39 13l4 20q18 14 102.5 103.5t102.5 111.5 q-45 2 -135 0q-11 6 -27 8q-23 -6 -22 -6h-238l-31 31v96h619q20 -10 35 -35q4 -33 4 -32l-4 -31l-113 -109l-164 -165q-2 -16 -14 -31q25 25 102 22l74 -2q18 -18 111 -71q10 -29 12 -32t24 -24l7 -43l12 -10v-68q0 -4 -19 -116q-8 -16 -28 -47q-2 -8 -4 -25 q-14 -10 -19 -25q-55 -59 -174 -170q-35 -23 -102 -69q-45 -6 -134 -53.5t-141 -47.5h-94q-27 0 -55 44q-4 29 -4 28z" />
<glyph unicode="4" d="M121 371h22l-16 4h-4h-2v6l4 35q12 16 25 28q2 18 12 45q12 6 12 19l12 18l4 35q6 8 17 37l10 8l6 41l10 8q4 16 7 52l10 8l8 55l-2 16l6 17l8 4v67l17 9v172l4 2v84l8 10q8 33 53 33q31 0 58 -21q2 -4 22 -33v-43l-12 -12v-174l-17 -8v-127l-18 -6l-4 -27l-8 -10l-8 -55 l-11 -13q-4 -14 -6 -30l-12 -21l-4 -39l-10 -10q-4 -12 -7 -35q-10 -18 -26 -35q-2 -20 -10 -45h-3h312q-2 10 -2 25l2 27l8 6v45q-12 20 -12 39l4 28l8 11q0 2 4 0l-12 20q-4 20 -4 21l4 20l8 10l2 4l-2 11l-21 20l23 23q4 14 6 53q43 16 62 16h10l37 -18v-303l10 -11 l-12 -10l6 -37h211v-98l-35 -25h-182l2 -8q0 -8 -8 -22v-129l16 -21l-8 -8v-104q-12 -20 -33 -33l-31 -4l-31 4q-20 12 -30 33v151l6 6q-6 16 -6 29l8 12v23q-16 37 -4 73q-18 0 -56 -3t-59 -3h-317l-33 17q-2 12 -6 41z" />
<glyph unicode="5" horiz-adv-x="1019" d="M94 -213q29 45 109 68q68 12 135 24l6 8q78 25 197 115q131 100 139 158l29 22q2 14 14 33q4 31 8 57l8 7v55q-14 25 -16 47l-53 53q-33 0 -62 10l-4 7h-18q-49 0 -144 -17q-113 -16 -123 -37q-31 -12 -57 -12q-14 0 -61 27v278l4 12l-4 13v145q14 12 18 39q31 0 89.5 3 t86.5 3l160 2q12 -8 27 -16l34 16q12 0 38 4t38 4q10 0 131 -30v-54q-8 -6 -20 -34l-33 -17h-197q-14 0 -42.5 5.5t-43.5 5.5q-33 0 -84 -5q-66 -6 -84 -6v-254q121 43 220 43q18 0 77.5 -18.5t67.5 -26.5q51 -8 100 -41q6 -14 56 -63q0 -15 -4 -31l20 -16v-172 q-6 -6 -28.5 -42t-24.5 -42l-10 -11q-2 -10 -5 -24l-12 -10q-2 -10 -6 -25q-25 -16 -111 -104q-70 -72 -122 -84q-139 -135 -349 -135q-61 0 -75 45z" />
<glyph unicode="6" d="M172 350v43l8 15q0 16 -4 53t-4 53l12 8v99l13 2q6 25 8 51q29 45 51 41q-4 16 -35 41q14 12 35 39q10 12 14 36q12 18 27 37q8 25 33 50q6 39 45 45q10 8 24 8v35q51 37 150 112l72 25l10 10q59 10 196 25v-93q-39 -41 -112 -41q-57 -25 -109 -36q-4 -8 -31 -19 q-12 -10 -133 -96q-8 -20 -26.5 -50t-22.5 -42q-12 -10 -16 -25q-10 -10 -15 -35q-23 -16 -65 -34l10 -5q8 -23 8 -38q0 -33 -12 -43l-8 -56l-8 -10l32 20q12 18 33 33l21 4l10 11q20 6 57 20h19q16 -8 63 -8q12 0 33 -19v7l102 -7q43 -20 84 -24l47 -35q0 -2 29 -43 q12 -20 14 -51q14 -18 46 -49v-189q-14 -10 -26.5 -40.5t-23.5 -41.5l-4 -12q-12 -10 -16 -25q-31 -37 -112 -78.5t-126 -41.5h-75q-8 0 -24.5 5t-29.5 3q-29 12 -73 29q-39 29 -113 96q0 16 -33 47l-4 20l-12 17l-8 51l-13 2v82zM289 319q12 -27 14 -55q14 -16 31 -55 l12 -10q6 -41 105 -74l8 -8q35 -12 61 -13q31 0 148 29q10 16 43 39l8 16l12 13h-2q6 14 16 22q2 16 15 37l6 49l-2 2v92q-14 23 -16 46l-17 2q-35 27 -92 75q-23 8 -64 31l-6 10q-25 -16 -65 -24q-55 -10 -70 -17q-29 -10 -61 -41q-51 -47 -58 -51q-8 -20 -26 -37v-78z" />
<glyph unicode="7" d="M152 522v129l8 11l8 38q18 27 49 35q-2 14 -10 74q-6 45 -6 78h35l12 12h344l8 -8h21q20 8 159 8q41 0 80 -18v-86l25 -21l-17 -14q4 -2 4 -10q0 -16 -8 -52t-10 -49l-10 -14q-4 -16 -6 -43l-11 -14q-4 -16 -6 -37q-14 -16 -16 -45q-14 -14 -17 -27q-10 -10 -32 -33h4 q-6 -16 -17 -24q-8 -25 -32 -50q-4 -12 -46 -64t-57 -65l-4 -12q-12 -10 -16 -24q-18 -23 -60 -66q-2 -12 -14 -31q-6 -25 -20 -37q0 -20 -7 -43l-8 -6v-73l-16 -9v-176q-25 -25 -107 -24q-8 27 -22 39v106l12 10v121l12 4l9 43l10 13q10 23 24 69q10 6 15 41q14 6 18 23 q12 10 17 26q12 6 14 29q45 43 123 139q8 6 41 52.5t37 58.5l10 8q2 10 4 23l12 10q2 10 4 24q16 18 49 54q-18 23 -16 41l10 12q6 25 17 41q4 16 16 35q-4 -2 4 -4l-12 14l-4 18h-203q-16 0 -47 -5t-47 -5q-23 0 -67 5t-66 5q-6 0 -33 -6q-6 -23 -21 -39v-98l-8 -8v-25 q10 -16 11 -24q0 -62 -127 -60z" />
<glyph unicode="8" d="M162 244v162l8 10l8 49l10 10q4 16 7 35q84 127 194 149q-20 18 -67 35l-41 41q-6 18 -37 56l-4 20l-13 12v176l11 13q4 14 6 32l12 11q2 10 4 22q29 33 98 88q16 20 82 37q55 14 90 15q33 0 116 -40t91 -65l45 -43q4 -43 21 -90l14 -12v-29l-10 -10v-8q0 -8 5 -25.5 t5 -28.5l-12 -14q-4 -14 -6 -39l-13 -10q-2 -10 -6 -25q-12 -10 -14 -22q-41 -51 -82 -80q-18 -3 -45 -21q121 -39 176 -110l4 -19q14 -14 17 -32l12 -15l6 -39l12 -10v-178q-8 -12 -26 -43q-4 -20 -30 -57t-26 -54q-96 -61 -135 -78q-68 -33 -145 -32q-43 0 -101 26 q-70 29 -94 33q-59 41 -131 148l-6 38zM279 279q8 -14 17 -36t40 -59q4 -23 41 -30q6 -12 80 -48h86q16 0 84 21q10 12 35 18q8 7 61 68l-4 -2q6 14 14 22q4 18 10 35l7 4v129q-10 14 -15 31l-8 6q-6 18 -10 35q-35 29 -103 88q-63 8 -94 25h-8q-2 0 -96 -31 q-31 -16 -64 -49l-45 -41q-2 -14 -16 -33q-2 -12 -12 -31v-122zM346 903l6 -12q2 -29 6 -43l11 -10q2 -12 18 -25q0 -14 62 -74q8 -23 8 -28q2 6 6 6l6 -2q15 -13 29 -19l30 11l27 26l18 4l7 15q27 18 73 57q2 8 4 20q12 12 17 39l8 9v86q0 20 -23 38q-2 8 -65 66 q-53 23 -90 23q-14 0 -98 -43q-2 -6 -23 -29q-12 -16 -12 -31l-15 -12q-2 -10 -4 -23l-6 -6v-43z" />
<glyph unicode="9" horiz-adv-x="1032" d="M131 584l33 22v160l16 8q0 12 6 29q59 61 64 84q33 25 98 76q115 37 148 36l26 -2l13 -6l18 2q41 0 88 -14l12 -8q25 -4 37 -21q37 -20 80 -63l4 -10l31 -21l6 -43l12 -14v-45h17v-109l16 -16q0 -20 -14 -37l14 -14v-127l4 2q0 -49 -14 -93l-2 -2v-59l-27 -20l6 -9v-41 l-14 -16q-2 -8 -4 -20l-12 -11q-2 -10 -5 -24q-14 -10 -18 -27q-4 -4 -31 -35l4 2q-6 -16 -32 -41q-14 -35 -84 -91t-111 -72l12 12q-35 -29 -188 -107h-18q-8 0 -50 27q-6 18 -6 35q0 35 17 49q4 4 55 22q174 59 276 185q23 23 50 76l12 10q2 10 4 24q11 11 29 31l-2 -2 q4 14 16 40t37 26l-6 32l4 2q4 20 6 66h31l10 20l47 9q-35 10 -51 16q-27 -23 -51 -57l-74 -50q-33 -49 -127 -49h-119l-12 11q-16 4 -39 6l-10 10q-59 20 -84 39q-10 8 -66 61q-4 14 -16 25q-4 16 -19 22l-8 64q-10 10 -45 35zM262 633l12 -15q23 -59 25 -90 q88 -109 195 -108q49 0 116 26q78 31 88 70l27 19q12 39 76 67q0 6 -8 6q-25 0 -29 23.5t-6 46.5q-20 18 -8 51l2 4q-18 6 -31 15q-12 16 -14 30l-58 58q-55 20 -65 32q-27 8 -82 21l-6 -10h-76q-16 -23 -94 -74q-10 -14 -21 -45l-8 -8q-8 -17 -16 -25v-86l-13 -4 q-4 -4 -6 -4z" />
<glyph unicode=":" d="M403 84v123q14 12 19 24q39 49 119 50q74 0 121 -70v-143q-25 -8 -64 -45q-41 -10 -41 -11h-47q-35 0 -86 33l-10 27zM403 539v114q14 12 19 25q45 57 108 57q70 0 111 -49q4 -12 21 -24v-125q-24 -43 -87 -70h-65q-47 0 -88 45q-4 14 -19 27z" />
<glyph unicode="=" d="M121 643l49 6v17q90 12 94 12q14 0 31 -8q18 2 27 8h536v-119h-565q-10 0 -31 -4t-31 -4q-8 0 -61 12v80h-49zM170 262v115q29 0 87 5t87 5q78 0 231.5 4t231.5 4h12q57 -25 58 -59q-1 0 -5 -31l-22 -26l-27 -17h-653z" />
<glyph unicode="?" d="M199 696v31l8 12l10 47q12 6 14 31q14 10 19 29q12 4 16 18q12 12 37 39q141 82 205 82q90 0 174 -49q2 -8 72 -43q-2 -23 2 -39l14 -2q23 -14 31 -33q2 -12 10 -63q8 -37 8 -62q0 -6 -20 -92q-12 -4 -17 -20q-12 -10 -16 -23q-49 -57 -104 -70q-27 -16 -70 -55v-88 q-18 -18 -39 -31h-27q-35 0 -63 19v115l10 12l8 26q39 41 76 80t107 60l8 8q6 12 14 22q6 23 16 37v43q-10 14 -16 37q-8 16 -27 49q-51 12 -153 43q-66 -29 -105 -37l2 2q-8 -12 -22 -18v-16l25 -23l6 -24l22 -23l-22 -22q-4 -14 -6 -48q-12 -12 -68 -45h-55l-68 33 q-2 25 -16 51zM381 74v104l10 12q33 78 133 78q4 0 66 -10q16 -16 31.5 -32.5t19.5 -37.5l12 -10v-104l-12 -13q-12 -27 -46 -48t-65 -21h-49q-41 20 -51 26q-29 18 -39 43z" />
<glyph unicode="A" d="M47 49l4 33q25 43 139 57l15 35l8 6v60l16 22h-4l13 29l8 4v76l16 8v61l12 13l9 39l12 18q-2 4 -2 12q0 14 8 37l10 8v95l15 6q4 14 14 32l8 56l12 18q0 20 5 45l12 21v10q0 16 4 43l10 12q23 92 103 94q8 -4 26.5 -12t46.5 -31q12 -4 39 -16v-41l4 -2v-82l11 -10 q0 -10 16 -29q0 -14 6 -45l12 -14v-33l-8 -10q6 -16 23 -45q6 -25 8 -51q12 -8 24 -21q2 -20 17 -43q18 -29 22 -37l9 -8q6 -20 10 -37l8 -10q20 -100 23 -127q10 -16 14 -31l-6 -20l-4 -4q10 -35 12 -84q41 -4 123 -41q12 -4 35 -17q6 -31 6 -30l-4 -35q-14 -6 -19 -27 q-12 -4 -16 -39h-43q-102 0 -307 17l-35 16v100q29 31 94 37v82l-4 4h-270v-6l18 -18l-18 -19v-45l69 -16l19 -17q4 -27 4 -26l-4 -31q-16 -12 -41 -63q-51 0 -150.5 -7.5t-148.5 -7.5q-23 12 -45.5 24.5t-22.5 57.5zM365 205v2v-2zM365 207h2h-2zM367 207v2v-2zM399 371 l19 -6l-2 -7l22 15q-2 0 156 6q-6 18 -19 29v71q-16 22 -16 66v10q-18 35 -20 59l4 -2l-13 15q-6 16 -8 37q-10 12 -10 24q0 8 8 21q-14 25 -24 94q-2 -20 -17 -55q-2 -20 -10 -48l-8 -6v-69l-15 -4l-8 -48l-10 -10v-78l-14 -4l-8 -47l-7 -6v-57z" />
<glyph unicode="B" horiz-adv-x="1019" d="M78 2q0 45 53 74h139v733l-39 10q-27 -6 -65 -18h-8v6l-13 -2l5 -2l-48 8q-4 12 -16 37q8 0 12 -8q2 14 15 22h-33q0 16 12 29q16 37 86 37l17 -8q20 0 36 4l17 12q37 -4 35 -4q12 0 34.5 6t34.5 6q264 0 326 -6q35 -4 70 -51q20 -12 65 -56q4 -14 18 -26q2 -27 7 -39 l12 -12v-150q-8 -4 -21 -49q-16 -14 -36 -45l-35 -21l10 -4l10 -8l27 -8l43 -43q0 -10 16 -29q2 -23 17 -41l4 -18q8 -6 14 -25.5t16 -27.5v-78l-12 -21l-2 -80q-16 -6 -22 -28q-16 -14 -37 -47q-31 -20 -54 -45q-61 -18 -122 -37q-53 -14 -146 -15q-8 0 -24.5 4.5 t-24.5 4.5q-6 0 -16.5 -4.5t-16.5 -4.5q-10 0 -22 9h-197q-14 0 -45 -4.5t-47 -4.5l-47 48zM154 850l4 -2v4v-2h-4zM387 541q8 6 19 6q23 0 66.5 -4t66.5 -4l155 53q29 10 29 55l8 8v62q0 92 -235 92q-18 0 -109 -8v-260zM395 80h109l10 -12h8q20 8 111 16q70 6 98 45 q12 6 23 12q4 8 10 22.5t12 33.5l6 4v100q-20 20 -28 37l-72 43q-14 2 -53 13.5t-58 11.5h-176v-326z" />
<glyph unicode="C" d="M139 549l13 10v66l18 14q0 4 14 29l4 34q6 8 17 37l8 9l10 45q16 14 62 81l-6 -14q4 12 63 44t82 36l10 12h152l20 -14l-2 4q14 -4 37 -20q17 -3 74 -23l4 14q35 39 80 39l28 -2q14 -18 47 -53q4 -41 5 -41l-5 -41q-33 -31 -30 -45l-8 -10v-55q8 -18 8 -35l-15 -23 l-4 -51q-6 -6 -18 -31q-29 -23 -53 -20l-54 37q-2 16 -4 30l-12 17v49l4 8l-4 6l-4 21l-12 10q-4 29 -45 63q-25 6 -37 21q-29 12 -33 12h-76q18 0 -51 -16q-12 -10 -35 -17q-41 -39 -45 -63l-12 -10q-2 -10 -4 -23l-11 -10q-4 -12 -6 -35l-12 -14q-4 -23 -14 -37 q-2 -29 -11 -53l-4 -4v-121q12 -27 15 -54q12 -23 14 -73l12 -13q2 -16 6 -30l11 -10q4 -31 32 -58q8 -49 78 -80q55 -22 112 -22h5h6q47 29 53 33q31 23 37 47q18 23 58 65q4 12 6 27l10 14q2 25 12 51q8 6 17 29l30 16h56q25 -16 35 -36v-84l-11 -11l-10 -41l-8 -8l-8 -35 q-23 -31 -70 -88q-43 -35 -123 -100q-72 -20 -139 -21q-150 0 -270 127l-7 25l-8 10l-4 10q-8 8 -14 19q-2 23 -6 35q-6 4 -31 10v72l-12 10q-17 135 -17 281v16z" />
<glyph unicode="D" horiz-adv-x="1030" d="M92 868l4 33q59 35 174 35h279q6 -4 65 -18q70 -16 187 -132q-2 -14 8 -26q25 -12 31 -62q-2 2 -6 2v-2l14 -18q6 -51 47 -84l-14 -12q4 -16 18 -41v-189q0 -6 -18 -94l-13 -18l-4 -35l-8 -12l-8 -50q-27 -25 -60 -57l-10 -25l-43 -24q-49 -98 -426 -98h-102 q-59 0 -111 18v78l33 26h141v25l-10 25h23l-7 22l-8 -4l2 35l4 -14q-16 63 -16 542v111h-131q-18 16 -31 37q-4 27 -4 26zM373 436l14 -22v-33l-10 -12v-11v-6l14 -8v-274l2 -2h82q39 0 86 12q57 16 70 41l43 14q6 12 16 37q14 10 21.5 22.5t11.5 38.5l12 13q4 23 15 37 q4 25 16 39v219q-12 16 -16 59q-12 27 -17 47l-10 12q-2 14 -2 23q-10 8 -29 20q-12 57 -117 91q-77 24 -147 24h-6q-23 0 -43 -4v-299q8 -18 8 -76l-8 -10q-2 4 -6 8z" />
<glyph unicode="E" horiz-adv-x="1024" d="M86 25l4 32l35 19h143v745h-147q-18 16 -31 37v33q12 16 29 33l20 12q49 0 146.5 3t146.5 3h186l226 -8l37 -31v-88q10 -25 12 -160q-29 -20 -57 -20q-29 0 -41 27l-15 10v159l-405 -14q4 -41 6 -166l-6 -6l6 -8v-43l-8 -12l12 -7v-53h168l4 4h2l-6 11v84l10 10 q6 14 19 33h41q12 0 43 -25q0 -31 2 -111q2 -72 2 -110l-6 2l14 -23v-35l-14 -22l-5 -49q-28 -19 -69 -19h-4q-20 12 -37 31v103h-160v-326l25 -4h303q27 0 47 2v63l16 9v90l17 8v76h92q18 -10 33 -31l4 18v-22l-4 4q-8 -66 -15 -100l17 -15l-27 -18v-105l-8 -2l4 -4v-55 q-39 -25 -139 -29q-74 -2 -150 -2q-59 -2 -76 -12h-385q-10 0 -53 37z" />
<glyph unicode="F" horiz-adv-x="1032" d="M94 29l4 28q20 37 49 37q4 0 14.5 -5t14.5 -5h100l-4 2l15 23l-15 20l17 14v109l4 -2l-2 16l-10 13v243l8 8v37q-10 12 -10 23q0 8 10 22v39q-12 20 -13 39l5 33l8 6v88h-123l-51 25v110h782q2 -25 5 -31t20 -16q2 -70 4 -207l8 -14v-37q-14 -23 -51 -45h-37 q-37 12 -45 47l-6 8l-7 25l13 20v29q-13 31 -13 81v7q-102 8 -256 8q-96 0 -118 -8v-289h127v152q57 14 65 14h12l56 -37v-303l12 -18v-33q-18 -20 -22 -51l-31 -14h-10q-8 0 -52 10l-18 24l4 -2l-16 25v109h-127v-115q8 -18 8 -37l-8 -8v-162q14 0 49 5t53 5q6 0 55 -4 l50 -47v-29q-66 -61 -91 -61h-2l-376 8q-20 0 -54 37z" />
<glyph unicode="G" d="M139 344v96l4 6l-4 7v90l13 8v92l10 6l12 43q23 20 27 31l4 41l10 10q16 45 70 84l10 19q76 35 172 92h14q-8 0 144 -21l4 -26l24 -4l23 -17l-2 6q16 -4 43 -30l2 2l8 8q4 20 6 65h55l37 -18v-103l-4 -4q6 -12 6 -32l-14 -7v-186l-43 -16h-20q-10 8 -31 12l-4 18 q-8 6 -19 19v86l-10 8q-4 14 -16 25q-4 10 -39 45t-45 35h-148q-23 0 -57.5 -27t-32.5 -49l-14 -13q-2 -10 -4 -22l-27 -25l-8 -49l-8 -8q-4 -31 -19 -45v-86l-16 -6l-8 -39l8 -43l16 -10v-76q16 -29 19 -51q10 -16 14 -33l10 -8q4 -39 35 -66q2 -25 39 -59.5t59 -34.5h121 q18 12 60 31q29 23 67 71q6 2 10 29q12 6 15 27l8 8v115h-207v90l37 18q27 0 53 2q37 0 37 -16q0 -6 -4 -15l4 -12q20 49 150 49q23 0 65.5 -4t65.5 -4l32 -33v-14q0 -18 -14 -29l-8 -16q-20 -18 -88 -25v-57l-14 -8v-12q12 -33 14 -89q12 -20 14 -108l15 -16v-60l-33 -33 h-41q-20 0 -41 41l-17 13v28q-96 -96 -229 -96q-63 0 -117 10q-10 10 -30 15q-39 29 -115 94l-6 24l-27 27l-4 23l-12 10l-4 20q-10 18 -29 49l-8 45l4 -2l-12 19l-9 41z" />
<glyph unicode="H" horiz-adv-x="1032" d="M125 16l6 25q57 37 156 41v24q-10 10 -11 23l5 14l-15 15l13 10v129l12 20l-12 21v149l-5 2v332h-114q-18 16 -31 37l-4 27l4 26q12 16 33 33q25 0 74 3t75 3l189 2q37 -25 37 -63q0 -43 -37 -68h-105v-26q6 -18 8 -52l-6 -8l6 -6v-113l-8 -8v-86q1 -1 28 -1t79 1l12 -12 l16 -6l15 14q10 4 209 4l-15 6v25q-25 12 -32 37v98l8 8l-13 9v116h-94q-51 39 -51 66q0 14 31 57q18 0 58 4t61 4q27 0 79 -34l25 10h88l66 -70l-54 -24h-39l-8 4l-12 -4q-18 4 -33 -5v-186l-8 -6l4 -6v-103q18 -12 19 -30q0 -31 -74 -54h26l21 -12q10 -18 12 -31 q12 -8 15 -34q-8 -20 -27 -45v-15q0 -16 6 -54t6 -56q12 -23 12 -49q0 -11 -2 -23l5 -16l-5 -19l2 -6l11 2q31 0 119 -45l6 -29l-6 -26q-39 -27 -183 -27h-106l-62 2l-35 16v97q63 0 138 8l2 57l-8 8v41q10 6 10 9q0 18 -5 59t-5 61l45 33v80q-25 -18 -82 -18q-53 0 -99 20 l4 -22q-100 0 -182 8q10 -14 10 -25q0 -10 -8 -24v-54q8 -18 8 -45l-8 -8v-37q6 -16 6 -143q49 -4 113 -10l21 -21v-80q-80 -10 -261 -10q-16 -10 -96 -10q-29 20 -47 45z" />
<glyph unicode="I" d="M133 827l37 37l-16 17q33 20 41 26q23 18 28 39q59 23 158 23q23 0 65.5 -8.5t65.5 -8.5q16 0 46 9.5t46 9.5q35 0 58 -10q29 2 65 2q80 0 147 -17v-28q-12 -31 -20 -62q-22 -23 -172 -23q-36 0 -80 1v-56q8 -20 8 -65q-12 -6 -12 -8q0 -78 6 -238t6 -238l-8 -8v-35 l8 -12v-33l-8 -10v-35q41 -4 55 -4h119q20 10 43 10q43 0 60 -47q12 -10 12 -26h-12l2 -19l4 2l-2 -2l-17 -26l-28 -17q-78 0 -235 -3t-232 -3l-99 -2q-16 0 -67 14l-6 39l4 29q23 37 51 51h221q0 344 4 649l13 9v94h-3q-35 -2 -108.5 -9.5t-110.5 -7.5h-137z" />
<glyph unicode="J" horiz-adv-x="1032" d="M119 176v113l10 20q2 18 6 47q12 14 45 50l41 6l-4 -2l12 -2v8q18 -4 50 -13q14 -12 30 -26q2 -16 6 -33l13 -12v-45q-27 -25 -92 -62q10 -16 14 -39q16 -25 55 -73q14 -4 62 -31l75 -6q37 16 62 22q57 43 80 107l6 4l-2 622l-76 -2h-12q-66 0 -117 21l-4 35l4 26 q20 25 51 41q33 0 98.5 4.5t98.5 4.5q39 0 118.5 -4.5t118.5 -4.5q31 -16 62 -53l-21 -20q-10 -31 -37 -54h-20q-27 0 -77 5.5t-77 5.5v-21l13 -8v-447q14 -23 14 -36q0 -31 -2 -62l-6 -6q-7 -45 -7 -74q0 -11 1 -20q-18 -14 -23 -31q-20 -23 -35 -74q-45 -33 -92 -71 q-96 -33 -141 -33q-33 0 -75 11t-81 20q-18 18 -61 41q-4 16 -17 26q-4 14 -18 25q-2 14 -4 24q-10 16 -29 47q-2 20 -16 29zM225 365h4v2z" />
<glyph unicode="K" horiz-adv-x="1019" d="M88 897q0 20 10 39l62 31h284l23 -15l12 -20l4 -29l-4 -33q-18 -18 -57 -20q-55 -4 -64 -6v-355l9 11l8 26q55 45 65 82q12 10 17 25q12 10 18 29q20 10 33 14l8 6q4 12 14 23q4 16 13.5 34.5t40.5 44.5q10 20 32 39q4 12 17 27h-43l-21 10q-16 23 -16 55q0 18 8 35 l29 17h217q8 -6 78 -9q37 -2 57 -22l4 -25l-4 -24l-47 -45h-43l-10 8q-66 0 -92 -29q-6 -20 -21 -30q-31 -37 -70 -103q-33 -39 -108 -115l-6 -20l8 -23l-4 2l14 -16l4 -14l13 -10q2 -12 14 -23l4 -12l29 -19q2 -10 20 -35q0 -14 29 -43q16 -31 41 -90h-2l12 -18 q4 -16 16 -37q4 -23 28 -59.5t28 -53.5l16 -10h10l-2 -4l21 12h96l31 -16q10 -25 10 -43q0 -49 -78 -51h-49q-20 -8 -231 -8l-31 16q-4 12 -23 39q0 20 33 53q37 2 76 12l-6 4q-10 16 -27 50l6 -4q-10 14 -20 41q-37 37 -49 75q-10 10 -17 23l-8 8q-6 18 -10 35 q-12 23 -17 41q-8 10 -14 22l-12 13l-4 22l-25 23l8 8l-6 6q-8 -12 -24 -29q-39 -51 -95 -131v-207q31 0 67 -3t56 -23v-76l-37 -16l-286 -11h-66v95l17 18q31 10 127 18l2 418l10 4l-6 9v233l-4 2v64q-53 2 -74 4q-45 6 -68 18q-8 25 -8 41z" />
<glyph unicode="L" horiz-adv-x="1032" d="M115 887l4 43l28 26q8 2 21 13q63 0 193.5 4t195.5 4h14q18 -11 49 -11q16 0 35 3q20 -16 33 -33l4 -33l-4 -29q-8 -18 -31 -32l-39 -6l5 2l-13 2v-6h-10q-16 8 -31 8h1q0 -1 -103 -8v-80q6 -20 8 -138l-8 -8v-16l12 -8v-475h342v6q-10 14 -10 35q0 14 4 32l10 6v136 l15 6q4 20 6 55l51 31h18q20 -8 39 -27v-373q-25 -10 -49 -34h-129l-8 8h-8q-27 0 -81 -8.5t-81 -8.5q-47 0 -143.5 -2t-143.5 -2l-123 -2q-25 0 -48 24.5t-23 47.5q0 72 96 72q41 0 68 -11q18 8 49 13v168l12 6q0 16 -4 59q-4 37 -4 60l2 6l-6 4q0 37 -4 123q-2 78 -2 120 q-7 18 -7 79v16l9 8l-2 72q-170 0 -205 16zM610 881l4 2h-4v-2z" />
<glyph unicode="M" d="M66 10q0 25 12 39q4 12 8 45q41 -4 59 -4q20 0 37 4v74l11 10l-3 8l-20 21l18 18l-6 6v134l6 8l5 26l-5 2l5 39l-3 -2l3 8l-3 7l3 -2q-10 47 -11 120q0 49 3 140.5t3 122.5q-29 -2 -45 -3q-77 0 -77 58q0 45 55 69q14 0 45 4.5t47 4.5q10 0 23 -11q55 0 108 -8l29 -28 l6 -41l-2 2l12 -17q2 -6 17 -14l8 -62l-4 3l12 -19l6 -41q12 -12 16 -33l11 -12q4 -23 8 -55q14 -18 16 -41l-4 2l12 -14q6 -23 9 -46l-4 3l12 -15q6 -16 10 -33.5t16 -44.5q0 4 25 33q6 23 8 70q2 2 37 63l4 -2q4 0 4 12q16 0 17 5q-4 8 -4 20l-15 -6l-2 -6q6 51 37 76v94 l16 8q0 14 7 43q12 4 16 20q12 10 16 25l2 2l-18 19q55 43 188 43v-3h6l58 -2l35 -16l4 -33l-4 -37l-31 -28h-29q10 0 -49 6l-10 -12l4 -9q14 -131 17 -131l1 2l-8 -8l8 -6v-59l-10 -11l10 -10v-43l-8 -10v-53q6 -15 6 -62l6 -2v-334q16 -2 111 -4v-114h-323v110q33 0 94 4 v258l10 19l2 14l-2 -2v16l-6 9v28l10 13q4 14 6 47l6 6l-6 6l-4 20l-12 13v37l12 12q2 10 4 22l8 9l-8 8q-2 31 -6 49l-10 10v29l10 10l-10 14l-2 27q-4 -14 -15 -35q-2 -25 -8 -43l-12 -14q0 -18 -16 -33v-4q0 -12 -5 -35q-14 -14 -26 -22v-64l-17 -8v-72l-16 -10 q-4 -14 -6 -51q-14 -6 -16 -29l-9 -8l-10 -45q-20 -12 -49 -25h-10q-29 0 -78 23q-4 20 -19 27q-2 27 -6 43h2l-12 20l-8 49q-4 10 -14 33l4 -4q-12 20 -23 49l6 -6q-12 14 -20 41l-10 14l-9 45l4 -2l-12 19l-8 41l4 -2q-12 12 -20 34l4 -2l-13 15q-6 20 -8 41l2 -2l-2 16 q-6 4 -8 12q4 -35 -2 -37q10 -14 12 -82l-8 -8v-37q6 -18 8 -37l-10 -10v-4q0 -6 5 -20.5t5 -22.5l-8 -8v-61l8 -13v-41l4 -2v-295q33 -2 90 -10l19 -18l4 -29l-4 -27q-20 -27 -53 -41h-248l-49 15q-6 23 -6 22z" />
<glyph unicode="N" d="M84 891v24q29 45 102 46q39 0 64 -19q10 -14 12 -29l6 -6q-8 20 -12 60h115q25 -16 43 -68l-4 4q10 -14 18 -37q12 -12 18 -37l-4 2l13 -14q4 -14 8 -37l-4 2q12 -10 18 -34q10 -8 19 -33q12 -16 16 -51q10 -16 14 -33l9 -6l10 -25l10 -10q2 -27 6 -39l10 -10l4 -23 l13 -10q2 -25 6 -39h-2l14 -23v-34l-6 -6l8 2q25 -8 51.5 -50.5t32.5 -70.5h-2l12 -19l5 -14v125l-5 -2q4 23 5 35l4 22l6 4l-6 6l-4 19l-13 16v58l8 14q-8 12 -8 22t8 25v51q-10 18 -8 43l8 8l-20 19l12 10v47l13 23q-14 2 -21 57q-15 4 -36 4q-27 0 -64 -6q-4 12 -25 59 q0 31 35 52q121 18 121 20h-2q33 0 100.5 -9t103 -9t35.5 -54l-4 -26q-27 -27 -64.5 -29t-74.5 -4q0 -236 -2 -248l6 -8l6 -20l-6 -25l-8 -6v-98l-16 -11l-3 -4l9 -4q8 -23 12 -39q12 -12 12 -37l-10 -10v-4q10 -14 10 -35q0 -23 -10 -35v-4q6 -12 10 -26l-4 -15h2v-192 q-12 -20 -35 -35h-65q-6 12 -41 37q-2 23 -13.5 45t-25.5 63q-12 10 -18 39l4 -4q-10 14 -19 37q-12 12 -16 35q-12 14 -19 51l4 -2l-12 20q-6 25 0 52h-20q-33 41 -37 82l-27 32l-4 52q-10 12 -26 26q-4 14 -19 23q0 14 -6 43l-8 10q-4 12 -15 20q-12 31 -26 70 q-2 2 -27 39l-8 45l-4 6l6 -10v-25l-8 -10l-2 2l10 -16v-43l-8 -8v-351q8 -14 8 -39l-10 -10q2 -4 10 -12v-33l-8 -10l-2 2l10 -16v-33l-10 -12v-5q0 -8 5 -18t1 -27q6 -16 8 -36h90l23 -15l12 -20l4 -25l-4 -29q-33 -32 -92 -32q-14 0 -29 2l-8 -6l-63 -2h-12 q-72 0 -167 22l-4 41l4 33q20 18 62 24q20 4 37 4t30 -4v355l4 2v399h-116q-18 12 -33 33zM328 831l4 -8l-2 8h-2zM696 186q2 -2 4 -2h2q-2 2 -2 6zM807 596l2 2z" />
<glyph unicode="O" d="M106 354l13 11q0 -6 -4 63q-1 30 -1 53t1 41q2 49 14 62q8 20 23 63l12 21q0 20 4 45l12 20l4 35l13 16q2 12 4 31q14 10 20 27q10 8 15 22q31 33 96 86l18 4l12 11l72 24v-2l19 12q14 2 32 11h9q16 0 46.5 -4.5t47.5 -4.5q39 -25 123 -61l75 -76q4 -14 19 -24l4 -39 l29 -29l4 -20l18 -11v-73q6 -16 29 -43v-269q-10 -4 -29 -14v-8l12 -10v-43q-14 -6 -18 -37l-10 -8l-8 -33q-20 -18 -48 -64q-10 -16 -26 -37q-10 -33 -60 -63l-18 2l-22 -23l-25 -8v2l-14 -12q-47 -18 -121 -18q-14 0 -91 22.5t-100 30.5q-31 31 -75 65l-9 27l-8 8 q-4 14 -33 31l-4 14q-8 8 -14 19l-6 53l2 -2l-12 18q0 12 -15 21l-8 45zM268 408q10 -25 15 -48l10 -12q6 -33 13 -64.5t34 -54.5q6 -31 47 -63l6 -12q90 -37 96 -37h56q6 0 69 26l11 13q31 10 34 12q18 8 23 27l6 8l10 43q23 20 25 24q4 16 10 33l6 6q6 25 17 39 q2 31 12 60l23 12l6 33l6 8q-23 33 -23 47q0 10 8 24l5 -2l-13 21l-8 49q-10 16 -16 33q-8 8 -15 33l-8 8q-8 35 -14 44t-37 30l10 12l-28 28q-2 14 -25 29q-36 53 -106 53h-5h-8q-2 -2 -57 -2q-29 -14 -76 -30q-10 -10 -12 -25q-14 -23 -45 -59q-2 -10 -4 -23l-13 -10 q-2 -10 -4 -25q-14 -10 -18 -24l-23 -23v-241z" />
<glyph unicode="P" d="M82 915l4 31q39 29 57 29h158q10 0 31 -8q43 0 135 9t137 9q39 0 156 -39q29 -31 90 -80l4 -10q27 -14 39 -49l10 -10q2 -12 31 -41l8 -33l12 -10v-146l-12 -10l-8 -33q-43 -51 -55 -61q-33 -31 -72 -45q-12 -27 -55 -47q-25 0 -76 -9.5t-76 -9.5l-186 4v-135l-8 -2l4 -4 v-25l-4 -2q8 -39 6 -63q42 -8 101 -8h24q27 -10 55 -41v-58q-56 -36 -123 -36h-4h-330q-29 20 -49 51v33q8 12 16 20q49 20 162 35v285h2l-2 2v444q-66 -4 -69 -4q-66 0 -109 39q-4 29 -4 28zM385 842q14 -14 37 -29l-14 -16l6 -15l4 -4l-4 -39q2 8 2 9l2 -3q6 -18 8 -100 l-12 -8v-78l-15 -4l2 -14l-6 2l15 -23v-33l-4 -2q164 0 200 2q150 16 156 82q10 14 26 29q2 20 11 43l6 4v51q-12 20 -12 68v14q-10 10 -15 19q-14 4 -43 16q-10 23 -57 29l-8 8q-25 0 -78 3t-82 3l-98 2q-6 -4 -17 -16h-10z" />
<glyph unicode="Q" d="M86 332v260l8 10l8 47l9 10l8 48l12 14q2 8 6 27q10 6 15 38q14 10 18 25q41 35 49 66q72 53 111 71q55 25 129 25q82 0 205 -66q4 -6 36 -37l-4 7q25 -29 64 -91q10 -10 16 -34l10 -9q10 -43 21 -131q14 -4 33 -18v-31l-11 -10v-16q-2 -18 27 -41v-31l-12 -12v-109 l-19 -10l-14 -33h-14v-8q0 -44 -21 -55v-88l-8 -7q6 -12 6 -37q-33 0 -51 -6l-6 -8q4 -14 6 -24l-31 -31l-14 14l-8 -35l-4 -6v-10q0 -20 6 -61t6 -62q10 -14 16 -33q8 -6 45 -12l15 -12l10 43l27 18l8 25l6 6q4 16 10 35l8 6q4 16 13 35q47 10 55 10h12q20 -14 51 -47v-43 l-12 -14l-8 -39q-10 -4 -14 -37q-14 -10 -19 -25q-16 -14 -39 -49q-88 -20 -145 -20q-70 0 -131 43q-8 18 -13 38q-6 6 -16 21l4 -2l-16 24v125q-14 -10 -17 -10q-121 0 -196 27q-57 35 -164 125q-4 20 -16 37l-5 18q-10 16 -28 47q-4 23 -8 55l-9 11l-6 39zM182 406 q14 -31 19 -68q10 -10 16 -49l-4 2q12 -10 18 -35q6 -4 17 -25l8 19l6 6q16 53 78 82q47 22 103 22h14l47 -2q68 -27 117 -75l8 -25h-2l12 -20l4 -25q10 12 27 41q8 4 12 31q10 6 14 34q16 23 29 35v160l6 4l-2 4v37l10 10l11 43l-9 4l-8 7q-6 0 -28 -5q-4 14 -23 37 q-2 12 -16 33l-7 27q-14 12 -18 35q-43 39 -86 77q-12 0 -34.5 5.5t-35.5 5.5q-8 -8 -61 -23q-45 -12 -55 -29q-12 -8 -39 -22l-4 -21q-33 -35 -31 -63h-8l-41 -43l-17 16q-18 -27 -22 -45q-10 -6 -14 -20l4 -15l-7 -20l-8 -10v-137zM352 119q51 -23 88 -23h25q43 0 76 19 v69q-10 10 -15 21l-26 24l-33 11l-27 -9q-27 -33 -75 -43h65q-35 -23 -72 -65z" />
<glyph unicode="R" d="M66 49l4 33q34 34 137 34q20 0 43 -1l-2 8l4 20v2v279l4 6l-8 6v412l-146 14q-18 8 -32 33v33q14 25 32 33l54 8l-2 -4l22 12l55 2q29 0 83.5 -4t80.5 -4q27 0 80 5t80 5q168 0 268 -100v-31l27 -8q6 -20 20 -31q2 -14 17 -25l4 -24l14 -12v-146q-14 -14 -18 -41 q-6 -6 -19 -28q-12 -10 -16 -23q-78 -82 -168 -98q16 0 27 -33q55 -51 65 -92l10 -8q4 -18 5 -37q0 -33 -5 -37q9 -46 9 -78v-6l6 -4l30 -6q45 8 54 8q72 -35 71 -78l-6 -35q-51 -12 -69 -12l-131 -2q-10 0 -35 20q-4 16 -17 23q-2 12 -18 33v41l8 12v4l-12 43 q-14 12 -12 37l8 12v4l-13 29l-12 14l-6 39l2 -2q-29 37 -96 74l26 24h-18v11l-14 -13h-176v-295h122l23 -14q14 -18 16 -37l-6 -20q-29 -37 -51 -37l-342 -8h-3q-25 0 -54 28zM352 432q0 -2 2 -6l8 4q-4 2 -10 4v-2zM365 854q4 -46 5 -170q0 -42 -1 -92q8 -18 8 -37l-8 -8 v-39h45q104 0 161 -12v-15q6 8 23 21q43 0 92 30.5t55 69.5l11 10q4 12 6 27l10 12v58l-10 12l-6 39l-11 10q0 16 -4 31l-12 4l-14 12l-27 8q-8 10 -33.5 23.5t-40.5 13.5l-182 -2q-37 0 -67 -6zM793 111l2 4h-2v-4z" />
<glyph unicode="S" d="M145 49v66l11 14l6 27l12 16v8q0 14 4 39l12 10v185l41 18h37q29 -23 37 -45q8 -6 25 -31l-4 -2v-67l8 -8q4 -14 33 -41q4 -20 26.5 -40t42.5 -24l15 -12q20 -6 55 -21h2q123 0 192 33l9 31q4 4 30 35l-4 -2q6 14 15 22v92q-10 16 -17 33q-33 35 -55.5 48t-87.5 18 q-74 4 -98 12q-57 20 -134 33l-10 8q-37 8 -45 37l-43 41l-6 24l-10 10q-2 27 -6 39l-11 13v123q12 8 17 47l10 10q4 12 6 26l29 23q16 55 98 92q70 31 137 31q53 0 115 -23l6 -6q31 -8 45.5 -31.5t22.5 -23.5l2 2l10 45q43 29 72 29l28 -6q8 -18 25 -37v-88 q-16 -12 -21 -27l-8 -8v-154q-20 -20 -57 -39h-19q-37 0 -59 23v69l-12 11q-2 23 -6 39h2q-8 16 -41 51q-84 31 -107 31q-41 0 -125 -31q-10 -10 -14 -31q-14 -6 -14 -18l-13 -19l6 -114q10 -12 25 -31q53 -27 100 -47q164 -2 310 -82q4 -16 51 -62l6 -41l-2 2l12 -18l4 -16 l15 -13v-155q-10 -20 -27 -39l-10 -39q-35 -23 -74 -64q-31 -10 -55 -26l-21 -4q-31 -31 -125 -31h3q0 2 -152 18q-14 8 -43 27q-39 14 -39 41l-4 -12q-14 20 -45 51v-49l-19 -25l4 2l-14 -20q-23 -14 -61 -33h-37q-2 16 -4 30.5t-15 20.5z" />
<glyph unicode="T" d="M143 561v332q27 18 64 53l254 -2q23 0 66.5 -4t66.5 -4l-2 -8q16 4 47 18h16q8 0 21.5 -4t19.5 -4l15 -8q20 16 30 16h80q16 0 60 -18v-74l6 -2l-6 -4v-17q0 -8 4 -25.5t4 -23.5l12 -10v-186q0 -37 -12 -72h-60q-12 0 -45 18q0 63 -3 168t-3 174q-16 0 -49 -2t-49 -2 q-35 0 -92 43l-8 -24l-9 -8v-389l-8 -5l4 -4v-37l-4 -4l8 -4v-100l13 -12v-37l-9 -8v-199q59 -6 125 -6h33v-2l8 4h29q16 0 57 -33l-47 -43h-125l4 4q-92 -14 -301 -14q-4 0 -4 2l-100 8l-47 47l53 29h193v584l8 4l-4 6v24l8 15l-8 8v100l10 19q-10 14 -12 39q-25 0 -99 -5 q-63 -4 -100 -4l-10 -12q8 -10 8 -25l-6 -22l4 -4v-78l-8 -8v-6l8 -13q0 -20 -8 -30v-2l-8 2l6 -8l8 -13q4 -29 4 -28l-4 -27l-12 -21l-7 -51h-36q-31 14 -52 39zM860 856l14 -10l7 2v6q-16 2 -21 2z" />
<glyph unicode="U" d="M102 895q102 27 103 27h338q-80 -61 -158 -68v-723q8 -10 21 -25q4 -14 35.5 -32.5t45.5 -18.5h111q20 0 76 51l8 37l10 7v266l17 8v219l12 10l-8 11v47l8 2l-8 10v47q10 6 10 8q0 6 -5 21.5t-5 23.5l8 11v4q0 2 -6 24h-117v49l27 13q25 -8 88 -54v9q25 35 96 43 q0 -43 -6 -76q-6 -20 2 -55v-82l-4 -2q7 -14 7 -29q0 -17 -9 -33l6 -4v-172l10 -10l-12 -10q4 -18 4 -31l-4 -8l12 -11l-10 -10v-244q-14 -6 -74 -96l-110 -55h-164q-10 0 -64 20q-33 18 -80 74q-10 10 -18 25l-8 10l-6 20l4 23h2l-8 22q-6 6 -11 17l2 622q-6 18 -4 35 q-57 -8 -80 -8z" />
<glyph unicode="V" horiz-adv-x="1021" d="M57 936l4 29l17 16l24 8l13 -4l2 2q49 27 121 27q158 0 208 -39q6 -25 7 -25l-4 -26l-29 -29q-33 -4 -76 -12v-58l6 -12q4 -25 29 -49l-21 -21q14 -4 31 -20v-68q12 -20 14 -80l13 -18l8 -53l-4 2l12 -19q2 -12 12 -53q10 -33 11 -53q31 -72 32 -139q12 -23 17 -39v8 l16 8v66l17 8v67l12 5l8 45l8 10q2 27 10 53q12 10 23 19q2 25 8 47l10 12q-4 16 -4 31q0 27 4 28l9 33l10 10v119l16 8v66l19 8l2 12l8 11l-2 8l-86 2l-29 14q-8 16 -8 39q0 35 14 57q23 16 39 17q10 0 30 -5t28 -5q18 8 30 8h191q25 0 57 -31l4 -31l-4 -28q-8 -20 -31 -35 l-39 -6l5 2l-13 2v-6q-8 0 -24.5 4t-24.5 4q-23 0 -33 -10v-89l-16 -8v-90l-14 -8q-4 -16 -11 -29l-10 -12v-6q0 -14 -4 -29q6 -20 0 -33q-10 -14 -18 -28q6 -10 6 -27l-6 -18l-35 -25l6 -8v-51l-14 -23q0 -20 -4 -55l-11 -10v-84l-16 -8v-99l-12 -8q0 -63 -74 -125 q-29 -2 -43 -2q-63 0 -100 49l-9 53l-12 9v65q-16 22 -16 81v13q-14 10 -27 25q-10 35 -12 63q-10 20 -10 72v19q-14 20 -17 75l-12 9q-2 14 -12 61q-8 39 -9 61q-49 71 -49 166v8q-16 20 -18 41q-41 4 -113 7l-31 28zM866 926l4 2h-4v-2z" />
<glyph unicode="W" horiz-adv-x="1021" d="M18 901v72q49 26 72 26h2l131 -2q72 0 99 -16q35 -23 47 -90h-121v-78q12 -23 12 -70q-12 -6 -12 -8l2 -4q12 -23 14 -139q14 -25 17 -139q14 -25 16 -117q12 -18 14 -70l4 23l9 10l10 59l10 9v69l16 8v78l15 4l10 56l10 8v67l13 9q2 25 10 49l8 8q10 27 39 43l27 2 q35 0 102 -47v-70q12 -20 14 -100q12 -12 19 -27l10 -10q14 -53 41 -162l14 -10v10l17 8v136l-13 10l29 18v76l16 8v152l-12 10l29 18v105h10v2l-45 -4q0 -2 -2 0q-41 0 -59 39v16q0 16 6 37q47 25 69 25l129 -2q20 0 58.5 -3.5t56.5 -3.5q2 -14 23 -34v-47 q-40 -29 -103 -29h-16l-6 -10v-152q10 -14 10 -22q0 -12 -15 -25q-4 -16 -10 -31l-6 -4v-125q-2 -2 -2 -6q0 -12 -14 -27v-92l-17 -8v-244l-4 -4v-14l-10 -12q-2 -23 -8 -41l-12 -15v-4q2 -20 -37 -47h-13q-43 0 -102 29q-6 12 -25 33q-2 18 -8 36l-14 11v65q-17 24 -17 76 v6q-16 22 -16 73v11l-12 10l-8 58l-13 8v74l-12 10l-8 57l4 -2l-12 19l-2 10v-86l-15 -8l-8 -47l-10 -11v-86l-17 -8v-123l-16 -8v-63l-10 -7l-12 -39l6 5q-2 -23 -11 -52l-8 -6q-4 -16 -14 -37h-113q-10 4 -55 35v66q-20 18 -14 41l-2 2q0 53 -8.5 152.5t-8.5 150.5 q-20 31 -20 203q-13 31 -13 79v7l-18 8v110q-35 6 -90 19zM721 928v14v-14z" />
<glyph unicode="X" d="M55 51l4 27q31 39 156 47l2 4q4 16 10 37l9 8q6 14 16 25q6 20 33 47l6 26l12 17v4q0 31 14 45q4 23 19 35q6 14 14 22q10 37 51 78l13 2v2l-11 19q-18 29 -47 73l-6 39l2 -2l-12 15q-20 20 -41 61l4 -2l-12 18l-6 25q-35 37 -49 74l-9 8q-6 16 -10 35l-2 4l-127 16 l-29 29q-4 25 -4 24l4 21q14 27 54 43h268q31 -25 39 -45l45 -45q-37 -20 -111 -39l11 -17q4 -16 32 -24q0 -23 6 -66l-2 2l13 -14l6 -20q39 -39 49 -66l6 -8l8 10q4 10 17 31q4 12 14 22q4 16 10 37l8 8q6 14 17 23q14 29 39 86l8 8v2q-27 4 -70 19q-8 29 -8 41 q0 67 108 67h3q72 0 90 -31l-12 23q27 14 57 14q41 0 106 -34l9 -15l6 -2h82q-53 -78 -115 -78q-12 0 -34.5 3t-33.5 3q-25 0 -45 -10q-10 -10 -20 -26q-20 -14 -31 -25l14 -12l-20 -33l-16 -10l-9 14l-10 -16q2 -10 17 -17v-45l-27 -26l-10 -54q-12 -8 -17 -20l-8 -10 l-6 -29q-6 -6 -14 -16l-4 -11l-9 -8l-8 -39l-14 -6q18 -12 49 -37l4 -22l12 -15q4 -23 35 -59.5t37 -58.5h-2q14 -20 45 -62q10 -20 25 -65l12 -19l37 -16h6q18 18 51 18l23 -4q39 -39 45 -52t12 -69q-39 0 -119 -5t-119 -5q-25 0 -73.5 4t-71.5 4q-25 18 -35 39v29l15 26 q12 6 75 25q-8 10 -12 25q-12 12 -16 32q-10 10 -18.5 22.5t-14.5 37.5q-8 6 -17 33q-10 10 -16 22q-12 12 -16 27q-10 12 -15 20l-8 -22q-25 -27 -71 -80q-14 -59 -33 -74l-8 -43l-13 -18q12 8 27 8l20 -2q51 -35 52 -66l-5 -26q-10 -18 -32 -33q-23 0 -71 -4t-73 -4 q-31 0 -91 4t-89 4l-31 31q-4 29 -4 28zM633 776z" />
<glyph unicode="Y" d="M92 870v99q127 18 201 18l135 2l37 -18v-84q-29 -12 -90 -23v-33q8 -23 12 -47l-2 2q8 -12 29 -36q10 -25 24 -76q12 -16 17 -47q10 -14 16 -39t25 -72l2 4q4 16 10 35l6 6q6 25 14.5 44.5t18.5 31.5q6 29 16 47q4 16 8 49l13 19l-4 -2q4 14 20 36v7q0 12 4 30l10 13 q3 12 11 26q-33 8 -99 31q-6 20 -6 37q0 14 6 35q55 24 120 24h5h27l12 -10h41h14q39 0 60 10h51q29 -12 53 -28l4 -31l-4 -29q-23 -31 -73 -39q-6 -2 -88 -8l-7 -23l-8 -6q-2 -12 -18 -34q2 -4 2 -13q0 -12 -8 -33l-9 -12q-4 -16 -14 -35l-10 -51q-6 -4 -19 -43 q-4 -2 -16 -41q-8 -4 -12 -35l-11 -10q-4 -12 -6 -35l-10 -14q-10 -20 -22 -63l-23 -25v-252q70 6 96 6q47 0 70 -12q14 -6 51 -41l6 -21l-4 -18q-37 -47 -147 -47l-369 -2q-39 23 -39 72q0 23 10 40l29 15h170v260l-10 18q-8 8 -14 17l-7 39q-8 14 -26 45l-8 53l4 -2 l-13 14l-6 19h2q-12 10 -20 34l4 -2l-12 15q-6 14 -9 33q-12 16 -16 47q-10 10 -14 22l-9 8q-8 31 -10 60l4 -2l-10 12q-14 33 -24 66q-31 -7 -121 -7h-23z" />
<glyph unicode="Z" horiz-adv-x="1032" d="M139 14v19q0 18 13 28l4 19q18 29 61 80q2 10 4 24q14 10 17 25q14 10 18 24l43 39q2 14 16 33q6 25 33 51l8 23q18 25 54 76q8 2 12 18q25 20 57 49q4 12 6 37q18 23 43 51l11 29l8 8q8 14 16 26.5t17 22.5l28 44q29 44 70 102l4 12l-47 -2q-20 0 -61.5 6t-59.5 6 q-25 0 -190 -16v-55l8 -13v-41l-8 -14l8 -8v-29l-13 -12v-68q-35 -14 -75 -35h-21l-35 17v209l9 10q2 8 0 16l4 -2l-13 23v43q16 20 21 49q72 43 174 43q20 0 59 -4t60 -4q35 0 105.5 4t105.5 4q109 0 145 -31l4 -41l-4 -41q-45 -39 -49 -65q-12 -16 -29 -35 q-10 -27 -63 -82q-14 -55 -53 -80l-11 -18q-8 -6 -12 -23q-12 -8 -16 -22q-12 -10 -17 -25l-26 -24q-2 -10 -4 -25q-14 -10 -19 -25l-43 -38q-2 -14 -16 -33q-2 -10 -15 -25q-8 -35 -43 -78q-29 -33 -59 -65q-2 -14 -18 -37q-2 -2 -5 -12q-12 -10 -16 -25l-6 -6v-6 q101 -5 101 -6h-1h307l9 18v2l-6 21l6 20l6 6v29q-8 12 -12 27l6 20l2 4l-21 21l29 18v78l16 22h-4q12 29 39 54h41q31 -16 53 -41v-52l-12 -16l-2 -233l-14 -9v-79q-63 -35 -127 -35h-543q-31 0 -72 26z" />
<glyph unicode="_" horiz-adv-x="1021" d="M2 -72l10 13l11 30l30 15h10q8 0 22.5 -4.5t23.5 -4.5h307q12 0 38.5 -5t39.5 -5q16 0 48.5 5t49.5 5q23 0 66.5 -4t66.5 -4q12 0 39 4t39 4h184l33 -30v-105l-12 -12q-18 -49 -74 -49q-55 0 -166 6t-166 6h-428q-16 0 -48 -4t-48 -4q-51 0 -66 53l-10 12v78z" />
<glyph unicode="`" horiz-adv-x="337" d="M-27 1450v37q18 20 23 51q10 4 16 33h103l-2 -8q41 0 100 -35q4 -16 51 -62l4 -22l76 -49l8 -35l13 -14v-58q-16 -8 -19 -20q-14 -16 -31 -29q-29 -2 -28 -2q-37 0 -125 68q-6 14 -31 18q-6 8 -39 33l-6 22q-47 14 -113 72z" />
<glyph unicode="a" d="M129 129v154l10 12q33 80 129 108q45 12 191 25q123 8 174 39v70q-41 53 -252 53l-19 -2l9 -10v-58q-8 -6 -21 -31q-38 -28 -75 -28h-3l-36 2q-6 12 -39 33l-4 14q-8 8 -15 18v50l12 16q2 8 5 22q14 8 20 29q53 27 164 64l14 12h19q45 0 120 -16q86 -16 119 -19 q41 -35 51 -45q27 -25 37 -57q18 -47 19 -88q0 -12 -6 -11l14 -22v-160l-8 -8v-53q10 -18 10 -29q0 -20 -10 -33l6 -8q4 -18 6 -35l12 -4l13 2q23 0 43 -16l22 16q43 0 78 -59q-10 -8 -27 -33l-28 -27h-129l-13 13q-10 2 -22 4q-16 14 -32.5 28.5t-20.5 32.5l4 -2l-13 19 l-2 6l-34 -35l-23 -4q-14 -16 -57 -33q-49 -20 -62 -29q-117 -18 -123 -18q-133 0 -209 96l-8 23zM246 180q8 -12 33 -33q116 -22 114 -22q45 0 105.5 31.5t83.5 70.5q25 10 51 33v84q-49 0 -148.5 -18.5t-150.5 -18.5q-41 -18 -78 -43l-10 -18v-66z" />
<glyph unicode="b" d="M125 897l4 23q12 16 31 30l39 6l-4 -2l12 -2v9q18 0 31 -15l16 19q33 12 90 12q33 0 59 -53v-109l-8 -8l8 -14v-131l-12 -21v-92l29 4l-10 2v51q39 33 77 70q61 18 78 18h92q12 0 64 -18q14 -14 53 -35l25 -27l4 -20l18 -8v-68l10 -10q2 -20 17 -45q4 -23 35 -45v-146 q0 -6 -19 -84q-8 -16 -28 -47q-2 -8 -5 -22l-28 -29l-17 -2q-2 -10 -4 -29q-12 -8 -24 -28q-37 -25 -121 -29v16q-18 -12 -35 -28h-78l-12 14l-20 4q-29 18 -89 70v-49q-10 -25 -36 -39h-33q-27 0 -55 41q-6 20 0 41l-13 10l21 18l-2 160l6 -2l-12 21q-4 23 -5 22l5 29l8 10 v22l-21 25l25 16v101h-49l45 43v112q-8 12 -13 31l13 21v8q-8 10 -8 57v55l-5 5l2 8q-18 4 -38 10l-2 2q-35 -14 -68 -14q-23 10 -39 32zM203 909h4v2zM395 424q6 -18 6 -109l13 -10l-11 -10v-14l9 -7q27 -29 61 -96l8 -6l6 -20q10 -2 27 -17q70 -31 160 -37q23 29 80 72v76 l2 2l-2 8l6 20l6 7v143q-27 25 -33 68q-10 8 -26 20q-2 25 -46.5 45.5t-72.5 20.5q-18 0 -109 -35h-4q-4 -62 -50 -62h-1q10 -4 10 -20l-2 -8q-16 -10 -35 -17h-2v-14z" />
<glyph unicode="c" horiz-adv-x="1019" d="M186 319v52l9 12l8 47l8 10l10 54q12 10 17 26q12 8 16 27q29 12 33 41q78 35 110 69l23 9q30 30 55 30h2q154 0 187 -45q8 4 18 4q33 0 72 -30q4 -14 16 -23q4 -16 37 -47v-51l-12 -15q-8 -20 -27 -63l-47 -23h-41q-14 12 -66 46v98q18 6 31 14h-137q-45 0 -55 -20 q-27 -10 -72 -41q-4 -14 -15.5 -27.5t-29.5 -42.5q-2 -43 -17 -63v-39q9 -19 11 -78q12 -16 18 -39q82 -80 86 -84q41 -27 123 -27q41 18 121 74q8 10 20 35l-2 10q0 55 88 55q10 0 39 -22v-62l-12 -14q-4 -18 -6 -49q-47 -47 -154 -125q-25 -18 -84 -18q-18 -10 -125 -11 q-41 0 -172 111q-6 25 -32 49l-9 27l-10 12l-6 37l-14 2q0 88 -2 96z" />
<glyph unicode="d" d="M145 242v186l11 10q4 20 6 68h28v59q8 2 23 23q12 10 16 26q100 78 144 78q127 0 243 -92v264h-24h-94q-20 0 -56 17l-4 37l4 38q72 25 142 25h67l8 -8l17 2l29 -4q16 -23 18 -56l-4 11q16 -55 18 -396q10 -16 15 -30l-7 -21l-2 -4l2 -4l7 -20l-7 -21l-2 -4l2 -4l7 -21 l-7 -20l-4 -6v-113q10 -12 11 -22q0 -8 -13 -25l-4 -27q2 10 4 11l2 -2q10 -22 10 -50q0 -9 -1 -18h96l35 -18l4 -33l-4 -35q-37 -49 -93 -49q-125 0 -163 51v25l-86 -62q-37 -22 -101 -22h-6q-96 0 -135 39l-51 18q-4 18 -19 29q0 14 -16 26q-2 14 -14 25l-4 12 q-8 8 -15 19l-8 45q-2 14 -25 43zM254 393l4 -2v-100q16 -31 18 -60q10 -16 15 -32l28 -25l5 -22l24 -27q20 -4 31 -12h80q29 0 92 69q19 56 31 64l34 47v131q-8 14 -90 96l-2 19q-20 10 -45 28q-29 8 -57 8q-45 0 -76 -24q-10 -8 -55 -55q-4 -23 -17 -35q-4 -14 -14 -25z M598 113h27v14l4 12q-12 -14 -31 -26zM649 113h6h-6z" />
<glyph unicode="e" horiz-adv-x="1019" d="M176 244v43l12 12v154q41 33 56 86q31 37 112 102q31 43 142 43q94 0 127 -29q25 -6 37 -18l18 -6l14 -13l25 -6l26 -26q4 -23 31 -47q4 -14 17 -23q4 -16 16 -27q4 -14 20 -26v-172q-16 0 -46.5 5t-45.5 5h-108q-6 0 -20.5 -4t-20.5 -4h-279v-31q10 -20 15 -39 q12 -18 19 -31.5t24 -37.5q23 -14 59 -43q83 -13 83 -15h-1q41 0 84 21q74 37 76 39q8 14 32 49h76q20 -10 37 -35v-33q-16 -20 -18 -41q-14 -10 -19 -26q-117 -70 -137 -78q-63 -29 -154 -29q-14 0 -26 10l-37 7q-12 10 -92 36q-4 10 -51 35q-10 29 -12.5 32t-22.5 21 q-2 10 -19 31q-2 12 -32 58l-7 36zM315 403q20 4 195 5l45 2q8 0 21.5 -4.5t21.5 -4.5h-3q0 1 116 7q-8 6 -15 30q-10 10 -14 25q-25 25 -74 69q-12 4 -30 13q-10 20 -60 20q-10 0 -98 -28l-4 -13q-14 -4 -33 -24q-27 -29 -29 -31q-8 -25 -39 -39l4 -10z" />
<glyph unicode="f" d="M201 51l4 31l33 24h174v13q-10 18 -11 26l2 19v2v182l13 21l-13 20v127q-6 18 -8 39q-6 -2 -29.5 -3t-37.5 -1q-109 0 -109 67l2 23q23 23 41 23h74q10 0 43 -17l22 4l5 17l6 4v37q-12 20 -13 39q0 63 4 75l11 8q10 37 84 103l20 4q31 31 129 31q57 0 109 -25 q63 -27 73 -74h48l-15 -32l29 -4v-29h-49l-2 -2v-6q8 4 14 4q14 0 20 -19l13 11q-4 -4 -17 -45q-25 -29 -51 -37h-33q-41 0 -65 14q-8 18 -10 31l-9 8l-6 20l6 21l7 8l4 18q-27 12 -47 13h-91q-8 0 -45 -19q-18 -37 -20 -73l-10 -7h16v-94q45 12 107 13q90 0 90 -56 q0 -18 -13 -39q-43 -24 -76 -24h-3q-14 0 -29 8q-20 16 -23 16l-49 -4v-248q8 -18 8 -75l-8 -11q-2 4 -6 9l14 -23v-53q0 -8 -5 -26.5t-3 -28.5l12 -7q16 0 49 4.5t50 4.5q70 0 112 -29v-55q0 -27 -77 -41q-55 -10 -107 -11q-53 0 -161.5 4.5t-161.5 4.5l-31 30z" />
<glyph unicode="g" d="M125 -27h41q-18 6 -19 23q-6 -8 -16 -8l14 30q10 4 13 25l10 12q4 18 6 64q14 4 25 8v8v10l-9 13q-2 27 -6 43q-10 10 -10 41l12 12v68q8 2 23 20l6 6v47q-8 15 -8 89v32q14 12 22 23l-6 14v35l13 12q2 10 6 25q10 8 24 34l21 7l14 18q12 2 21 10q23 4 59 8l43 27h18 q84 0 133 -43q14 12 50 27h12l14 -11q8 4 23 43h41q139 0 196 -83v-119q-20 -23 -69 -47h-11q-61 0 -77 45v82q-23 6 -49 6q-25 0 -58 -13l-2 -4q20 -18 25 -41l-2 2q4 -29 4 -57v-18q8 -18 12 -39l4 -2q-2 -31 -10 -90l-27 -25q-27 -102 -254 -102q-16 0 -98 41l-4 -15 l-4 -4l-2 -53q8 -10 16 -41q6 6 12 14q41 4 123 17q0 -14 -16 -19q25 -2 22 -26q12 45 181 47q27 -14 67 -19q27 -10 68 -45q25 -6 47 -24q4 -14 18 -25q2 -25 19 -33v-139q-16 -12 -21 -27l-8 -8q-4 -14 -6 -31q-14 -20 -45 -53q-25 -6 -96 -37q-57 -24 -96 -24h-3h-157 q-133 0 -254 110q-4 14 -23 21v80l-12 12v14zM236 -33l2 -16q12 -23 38 -60q156 -38 193 -38h2q154 0 264 63l4 6l-4 4v37l10 10q-2 43 -30 70q-12 12 -64 41q-92 16 -133 16h-67q-29 0 -98.5 -23.5t-82.5 -39.5q-4 -8 -14 -23q-4 -45 -14 -55q-2 4 -6 8zM311 537l17 -17 l-15 -14l9 -4v-74q6 -12 16 -35l8 -8q2 -8 31 -31q25 -8 31 -14h63q10 0 29.5 6t25.5 8l54 54v143l-15 4q-47 49 -106 49h-33q-27 0 -47 -8q-25 -25 -68 -59z" />
<glyph unicode="h" d="M88 891q29 14 39 51l29 29h67q25 0 71 -10.5t73 -10.5v-92l-9 -8v-84q8 -14 9 -25l-5 -14l5 -4v-105l-9 -8l-2 -55q41 43 115 51v2v31l29 35q43 0 57 4l10 8q8 2 21 12h12q45 0 100.5 -36.5t65.5 -77.5l8 -9q6 -10 6 -45q0 -25 -22 -38l14 -9q20 -45 23 -137l-4 -2 q6 -16 6 -37q0 -23 -6 -39l-5 -2l11 -12v-31l-11 -16v-94q45 -8 107 -13l20 -12l13 -20l4 -31l-4 -35l-35 -18h-318l-20 12q-16 23 -16 51q0 56 51 56q6 0 14 -1q20 6 64 7v362l16 12l4 6l-14 11q-29 73 -90 73h-2q-8 0 -35 -2t-43 -2q-10 -43 -41 -68.5t-31 -31.5 q-23 -20 -33 -43q-23 -43 -22 -45v-277l43 5h-4l6 -3v5q45 0 74 -29q8 -20 8 -41q0 -16 -10 -41l-31 -14q-55 -2 -111 -2q-66 -2 -106 -13q-29 -10 -82 -10q-20 0 -53 39v102q43 -8 65 -30l16 10l3 -4l22 33h35v243q0 37 4 41v195l12 4v2h-12v240h-127q-4 23 -39 55zM416 59 h4h-4z" />
<glyph unicode="i" d="M88 35q41 31 41 57q25 27 53 27q29 0 84.5 -9.5t83.5 -9.5h88v66l6 2l-2 6v377q-51 -6 -65 -6h-197l-35 16v92l35 19h246q18 0 53 -4t53 -4l37 -19v-528l-10 -17q10 2 25.5 1t21.5 -1q27 0 80 5.5t80 5.5q2 0 82 -5l20 -12l13 -20l4 -33l-4 -33q-23 -41 -72 -41h-659 q-8 43 -62 68zM360 844v41l27 45q23 39 64 39h63q10 0 37 -21q4 -31 16 -43q2 -25 19 -55v-45q-29 -22 -70 -45h-70q-12 0 -67 43l-8 26z" />
<glyph unicode="j" d="M209 -78l2 2q4 16 8 53q33 49 105 50q37 0 71 -39v-101q-14 -16 -37 -32q51 -43 68 -43h74q51 0 92 38l10 27l6 6q2 27 10 49l-2 7v69l11 19l-2 10l4 -2l-13 22v447l11 18l-2 19l4 -2l-11 10l-4 12h-161q-15 -8 -86 -8h-31q-20 8 -35 33v61l31 33l301 -2q8 0 76 -8 q8 -8 32 -13q2 -25 -6 -43q4 -12 6 -24l-8 -12v-89q6 -18 6 -157l2 -21l-6 -4l6 -10v-166l-10 -10l-2 -17q0 2 2 2v-14l-2 2q5 -29 5 -70q0 -13 -1 -28q6 -18 8 -143l-14 -13q-2 -10 -4 -26q-14 -10 -18 -25q-12 -10 -17 -27q-129 -75 -199 -75h-2q-51 0 -157 28 q-33 27 -78 68q-2 12 -33 41l-8 61l2 -2zM532 842v69l29 31q10 0 32.5 13.5t27.5 13.5h49q35 -14 86 -54q8 -57 8 -47q0 -8 -8 -55q-49 -47 -111 -47q-12 0 -49 2l-47 45q0 10 -17 29z" />
<glyph unicode="k" d="M76 909q41 68 96 68q10 0 44 -2t60 -2q16 8 58 8q4 -14 24 -37v-82l-10 -10l10 -10v-236q-4 0 -2 -4q0 -2 2 -2v-33q-2 0 -2 -2q-2 -4 2 -4v-84l4 -2v-96l17 8q16 27 108.5 111t110.5 86q-43 -2 -41 -2q-35 0 -61 22v29q0 51 42 51t122.5 8t121.5 8q72 0 119 -14l19 -18 v-93h-162q-66 -49 -191 -147q31 -41 51 -61q4 -14 33 -41q4 -16 17 -23q4 -14 47 -57l-27 78q25 -53 70 -158q18 -18 51 -43h139l23 -14l14 -23v-55q-16 -6 -22 -35l-250 2q-88 0 -148 12q-20 18 -20 45t18 45q43 12 99 19l-33 43q-2 20 -23 28q-12 12 -16 25q-12 12 -17 25 q-29 37 -84 106l-30 -20l-6 -15q-70 -35 -86 -65v-119q37 -4 102 -16l20 -21v-63q-37 -31 -190 -31h-115l-65 2l-35 16v109h162v553q0 31 -3 92t-3 92q-16 -4 -25 -4h-113q-2 20 -6 35z" />
<glyph unicode="l" d="M162 41l4 33q25 45 102 45q49 0 76 -10h143l-2 270q0 37 4 41q4 12 7 33l-29 26l12 10v66l8 8v45l-8 13v43l8 8v155h-81q-6 0 -19.5 -5t-21.5 -5h-132q-20 10 -51 41v68q14 6 19 28q20 4 30 15h13q8 0 24.5 -4t24.5 -4q10 0 31.5 4t31.5 4h211q18 0 56 -41v-146l-9 -8 l-2 -53l11 -8v-232l-23 -14q6 -20 35 -43l-21 -21v-294q35 0 102.5 4t102.5 4h12q20 -8 31 -17h74v-104l-88 -23l-201 2q-18 0 -53 3.5t-53 3.5q-18 -8 -29 -9h-106q-10 0 -32 4.5t-32 4.5q-4 0 -13.5 -4.5t-13.5 -4.5h-114l-23 15l-12 20z" />
<glyph unicode="m" horiz-adv-x="1030" d="M76 43q0 45 39 68h71v448h-71q-2 23 -4 25q-4 10 -15 16v43q31 33 140 33q41 0 75 -55l-14 -15v-16l8 8q12 43 65.5 78t100.5 35q6 0 78 -37q4 -14 6 -27l12 -10q2 -33 6 -47q29 37 95 106q33 12 51 13q92 0 151 -76q0 -80 2 -260q2 -168 2 -260l31 2q35 0 58 -23 q4 -25 4 -24l-4 -23q-20 -27 -54 -39h-51q-23 -12 -67 -12q-66 0 -111 16q-6 10 -12 23v-37h-217q-18 0 -56 29q-6 27 -6 26l6 27q37 27 80 35v30l-4 2l4 2v-4l10 -8l-10 21v18l8 10l-8 11v94l8 10l-8 10v146l8 8v86q-6 12 -16 35h-39q-27 -33 -84 -95q-10 -23 -25 -75 l-12 -11q-2 -10 -4 -22l-6 -6l8 -6v-50l-6 -12l6 -12v-27l-12 -10l2 -4l-2 -4l22 -21l-8 -8l8 -8l-18 -18v-70l10 -16q18 -8 80 -13v-100q-33 0 -96.5 -4t-95.5 -4h-65h3q-27 2 -53 20zM582 174l4 -10v-53l61 -9l21 -20v-4q6 6 10 26q45 2 86 13l2 18l-27 17l27 24 q-2 8 -2 10l2 -2l-4 37l-6 8v66l4 12l-4 12v27l8 8v181l-8 8v16l4 10l2 -4l-2 4q-6 14 -8 21l-33 2q-45 -27 -55 -64q-12 -20 -43 -59l-5 -20l-10 -11q-4 -14 -6 -32l-10 -11v-78q-4 -2 -4 -6v-133z" />
<glyph unicode="n" d="M115 43v37l26 29q30 10 92 10h21v71l6 -2l-12 23v137l4 10q-6 4 -6 33q0 25 10 37l-2 137q-11 3 -29 3q-25 0 -63 -5l-31 31l-2 31q0 75 120 75h3v-51q0 25 24 25q-20 4 -20 24l68 -8q20 -16 49 -49v-37l-19 -16l4 -23l17 15l8 20q18 25 86 64q27 12 80 36h37 q139 0 182 -86q25 -52 25 -177v-36l10 -14v-16q0 -18 -10 -31v-92q10 -14 10 -25q0 -10 -10 -22v-72h104l23 -14l12 -21q4 -29 4 -28l-4 -31q-18 -23 -51 -41h-15q-49 0 -145 5t-143 5q-25 18 -35 39v29l14 26l21 13q25 4 24 4q31 0 53 -11l13 7v432q-19 32 -56 32h-2 q-43 0 -103.5 -31.5t-82.5 -68.5q-14 -27 -47 -78v-73q-4 0 -6 -2q0 -2 2 -5v-81l-8 -15l8 -10v-31l10 -10l-21 -20l-2 -17q0 2 2 2v-14q68 0 89 -4q55 -12 55 -60l-4 -22q-10 -18 -31 -31q-20 -2 -115 -10q-72 -8 -114 -8q-12 0 -39 4t-39 4q-18 14 -49 49z" />
<glyph unicode="o" d="M176 365l8 10l9 55q10 10 36 84q10 4 13 29q14 10 18 24q12 10 16 27q35 23 56 45q94 47 133 47h123q35 0 88 -33q76 -45 82 -49q6 -18 20 -29q2 -14 31 -40q4 -14 18 -25l7 -41l16 -10v-74q10 -23 12 -104l-12 -21l-2 -74q-20 -4 -21 -14q-16 -18 -36 -74 q-10 -8 -15 -24q-94 -63 -125 -76q-63 -31 -145 -31q-84 0 -113 29l-59 24q-25 27 -107 89q-4 14 -22 20v74q-29 31 -29 147v15zM309 319q8 -18 10 -77q12 -16 19 -37q23 -23 33 -51q33 -14 75 -41q14 -4 19 -4h106q14 0 35 4q16 18 45 37q8 12 33 40l16 3q4 8 17 20v82 l12 8v64q-16 20 -6 39l-18 18l-7 41q-31 25 -75 65l-5 2l-47 46q0 -25 -90 -25q-27 0 -127 -80l-8 -27q-8 -14 -24 -32v-66l-13 -8v-21z" />
<glyph unicode="p" d="M156 647l4 37q31 31 57 31h238v-117q29 37 59 78q92 55 195 55q33 0 149 -94q6 -16 17.5 -27.5t23.5 -46.5l12 -14l7 -27l16 -10v-66q12 -23 12 -155q0 -6 -18 -84q-14 -33 -47 -82q-2 -2 -4 -16q-45 -33 -94.5 -66t-106.5 -33q-63 0 -195 78l-22 33l-2 -4q0 -2 10 -17 v-47l10 -10l-8 -8l8 -8l-18 -19v-92q8 -18 8 -37l-10 -14q0 -2 4 -6h172q18 -16 33 -37v-43q-37 -41 -56 -41h-96q-14 0 -42 4t-42 4q-23 0 -67 -3t-66 -3l-102 -2l-35 18v88q29 20 76 21q16 0 51 -5t53 -5h8v344q-6 12 -10 26l4 15v116l8 17v8l2 -2l-10 20v76l-4 31l4 37 l8 6v37h-37q-16 8 -26 10l-23 -8h-69l-35 16zM463 367l8 -5v-63q12 -14 41 -43q6 -20 10 -43h-2l15 -20q20 -12 30 -29q35 -17 76 -37q78 2 139 63l11 25l6 6q6 29 26 90q-4 16 -4 17q0 10 8 22l-8 15q0 10 2 24q-10 39 -24 113q-14 27 -43 57l-2 10q-23 14 -43 19l-15 8 l-10 2h-53q-20 0 -43 -25q-12 -4 -21 -10q-12 -27 -94 -110l-8 -52h2v-28z" />
<glyph unicode="q" horiz-adv-x="1036" d="M160 227v219l12 13l4 20l8 10l9 39q14 14 16 33l12 14q2 8 4 25q14 10 25 23q84 47 96 51q47 22 104 22h5q78 0 174 -96l6 -16v78q16 18 37 32h41q25 -16 35 -37v-256l-13 -10q14 -111 17 -557q-4 0 55 0q57 0 119 -59q-29 -23 -37 -49h-400v81l23 15l119 10l-2 258 q-106 -84 -140 -84h-149q-57 55 -107 78l-24 27q-2 16 -33 61l-8 45zM276 272q10 -31 15 -63q49 -72 98 -94h80l27 6q18 14 57 43q4 12 14 20q2 14 17 35q6 12 16 25.5t31 44.5v143q-68 51 -80 88q-8 6 -19 10q-25 14 -69 48h-43q-23 0 -53.5 -23t-34.5 -43q-12 -10 -27 -25 q-6 -12 -16 -22q-2 -12 -13 -31v-162z" />
<glyph unicode="r" horiz-adv-x="1032" d="M145 23v49q6 10 21 32l14 13q57 4 156 4v438h-121q-27 8 -53 39l-4 37l4 39q27 20 37 20h84q12 -6 24 -18q20 0 31 18h106q4 -14 25 -37v-51l-8 -8v-27q16 25 65 66q41 57 107 57h90q23 0 55 -12q47 -12 56 -14l43 -35l10 -27l10 -12q4 -23 8 -55l10 -13v-34l-12 -13 q-29 -78 -102 -78l-27 2l-51 35l-8 51l-8 11v28l8 11q4 18 16 28l-14 2q-39 0 -129 -45q-10 -18 -35 -32q-10 -18 -33 -33q-4 -10 -11 -21.5t-16.5 -25t-19.5 -23.5v-266h86q10 0 28.5 4t28.5 4l52 -39v-59q-14 -8 -25 -27l-27 -18h-450q-2 14 -21 35z" />
<glyph unicode="s" d="M170 53v66l10 14l8 33l7 6v53q-9 18 -9 112v19q84 -4 129 -45v-69q33 -72 74 -80l21 -17l-2 5q53 -20 84 -21h108q25 0 68 11.5t57 25.5l20 12l5 8l-5 17l5 16l-5 17l5 16l-9 20q-47 49 -200 56q-172 6 -219 30q-23 18 -66 52q-6 18 -20 26q-2 23 -17 49v29l-12 10l12 11 v30l10 15q4 14 7 34q29 18 61 58l25 8q12 12 53 24.5t63 12.5h146q72 0 145 -47q6 20 21 32q16 6 36 7q20 0 37 -7l19 -18v-217q-51 2 -68 8q-35 10 -47 43l-41 41l-41 10l-8 6q-100 14 -102 15h1q0 -1 -147 -15q-14 -10 -27 -14l-2 -16l-6 -6v-56q14 -20 43 -24l6 -8 q145 -2 215 -13q113 -18 201 -71q6 -18 19 -27l6 -14l-17 8q20 -14 35 -51l12 -13v-96q-31 -23 -34 -70q-14 -10 -19 -26q-125 -84 -274 -84q-111 0 -250 72q-4 -16 -33 -46l-33 -4l-41 4q-2 14 -20 33z" />
<glyph unicode="t" d="M178 586v82q29 43 70 43q16 0 49 -9.5t49 -9.5l39 2v70q-8 17 -8 133v51q29 45 82 45q51 0 63 -41l8 -8l7 -20l-7 -25l-8 -6v-125l-12 -8v-60q47 -8 143 -14l41 16h17q39 0 123 -12v-86q-23 -45 -78 -45q-35 0 -106.5 5t-106.5 5q-18 0 -33 -4v-219q10 -14 10 -22 q0 -10 -10 -23v-111q8 -12 14 -30q25 -29 47 -37h23q12 0 68 12l6 8l30 13l9 55q9 10 32 33h-6q10 55 62 55q31 0 86 -39l4 -31l-4 -28q-39 -33 -52 -68q-27 -23 -55 -65q-16 -8 -37 -27q-27 -53 -141 -53q-106 0 -184 96l-9 25l-8 10l-8 22l-10 13v301l8 8v106 q-23 -2 -66 -10t-65 -8q-53 0 -76 35z" />
<glyph unicode="u" d="M119 565v115q84 10 209 12q16 -18 30 -35l4 -18q14 -10 15 -37l-8 -12v-47q8 -18 8 -43l-10 -13v-12v-29l10 -14v-43l-8 -8q0 -94 -2 -102l20 -19l-18 -18v-80l6 -8l4 -21l8 -8q55 -12 57 -12q66 0 150 65q10 16 31 39l6 19l12 14l6 22l23 25v274q-6 1 -23.5 1t-46.5 -1 q-57 23 -57 62q0 14 10 51q12 0 37.5 4t38.5 4q86 0 153 -26l7 -27l-7 -21l7 -20l-7 -20l-4 -7v-14l-6 12q16 -66 19 -448h129v-98q-41 -29 -156 -29q-35 0 -90 26v86q-33 -23 -76 -67q-20 -2 -49 -21q-36 -26 -97 -26h-5q-10 0 -64 4q-51 23 -59 29q-33 18 -45 47 q-12 12 -21 30l6 -8q-18 35 -18 396v75h-129z" />
<glyph unicode="v" d="M6 668l92 10v18q23 6 33 15h39l31 -17q23 6 43 17q16 0 49 4t49 4v-8l10 4l-6 2q35 -2 121 -33l6 -29l-4 -24q-33 -39 -107 -47v-13l9 -10q2 -10 14 -26q4 -27 8 -46l-2 3l12 -15l7 -18h-2l12 -21q4 -31 24 -94l-2 2q12 -23 15 -65q16 -20 20 -48q12 -23 17 -40l2 -5l2 5 l6 8q2 20 10 43l6 6q4 37 17 49q4 43 16 57l8 54l25 39l4 2v73l16 11q4 12 12 22l9 37l-45 -4q-59 25 -60 61q0 2 4 31q35 43 121 43l203 2q10 -10 20 -12l29 -27l4 -39l-4 -37q-32 -31 -121 -31q-13 0 -26 1l-4 -11l-11 -10q2 -6 2 -14q0 -16 -6 -39l-10 -12 q-4 -14 -14 -35q-2 -23 -17 -62l-8 -51l-10 -10v-66l-19 -12l-12 -16l-8 -51l-8 -9q-2 -20 -9 -59l-12 -19l-4 -51q-14 -6 -18 -37q-67 -22 -85 -22h-1q-33 0 -60 14l-43 41l-6 41l2 -2l-12 21l-8 47q-8 10 -15 32l-10 13l-6 37l-10 12l-6 39l2 -2l-13 14q-4 14 -8 37l4 -2 l-12 14q-6 18 -8 49q-25 31 -33 105q-10 12 -16 33l-9 8l-4 28q-92 2 -112 21q-2 23 -17 59v13h-92zM342 668h2h2l-4 2v-2z" />
<glyph unicode="w" horiz-adv-x="1032" d="M72 623l4 26q12 20 33 33q27 0 81 5t80 5q35 0 60 -8l20 -18v-74q-27 -16 -57 -19v-59q10 -23 12 -90q14 -25 17 -117l10 -10l4 -21l18 -10v-78l2 13l13 16v6q0 10 4 27l12 16v4q0 12 6 35l8 10q4 14 7 43l10 15q4 14 6 35l10 14q4 14 6 51q14 10 21 31q23 6 47 22h24 q10 -8 39 -22l25 -25q6 -20 18 -37l6 -36l11 -15q2 -20 6 -35l10 -14l8 -53l-4 2l13 -19l6 -32l-2 2l12 -19q4 -16 16 -37l2 -14l2 2v94l17 8v82l16 9v135h29q-10 12 -8 39v12l8 8l2 12q-14 2 -76 23l-4 37l4 29q39 27 55 26l140 2l20 -20v12h60v-59h-17v-27 q-37 -12 -70 -21l-8 -14v-119l-16 -8v-76l-16 -8v-90l-19 -8v-82l-16 -8v-78l-15 -4q-4 -18 -10 -41l-8 -8q-6 -14 -18 -25q-33 -8 -50 -12v8l-12 -2l4 -2l-41 6q-16 16 -20 31l4 -2l-12 16l-9 41l4 -2l-12 14q-6 16 -8 41q-10 18 -16 47q-12 12 -17 50q-10 12 -16 49 q-12 16 -17 65l-4 8v-2l-6 -6q-2 -25 -10 -51l-6 -6q-6 -20 -17 -33q-2 -23 -16 -57q-2 -23 -16 -57q-2 -20 -9 -39l-12 -15v-6q0 -10 -4 -27l-12 -16l-6 -27q-16 -10 -50 -26h-18q-33 0 -63 14q-27 51 -27 121v10l-27 21l11 8v59q-17 24 -17 69v5l-18 8v92l-13 13 q-2 37 -6 55l-10 14v49l4 9l-6 12q-20 6 -68 12l-28 29zM694 45l4 -2v4v-2h-4z" />
<glyph unicode="x" d="M92 -14v96l33 27h106q29 31 86 92q10 20 47 57t44 57q12 10 16 25l8 6q-20 10 -89 89t-75 100q-10 6 -22 22h-101q-33 12 -53 41v33q30 41 70 41h4l256 -2q45 -27 45 -52q0 -18 -35 -45l-47 -8q12 -20 37 -45q25 -33 76 -94q12 16 34 47q35 6 52 29h4l-4 14l6 27 q16 8 39 16q-51 6 -86 29l-6 16v21q0 67 270 67h8q37 0 92 -37l8 -39l-8 -32l-30 -23h-119q-25 -16 -64 -33q-12 -12 -30 -14v-49l-17 4v-35l-16 -18l-4 -10q-19 -25 -56 -68l7 -8q4 -18 32.5 -38t34.5 -30q0 -10 14 -18q4 -16 31 -41l6 -15q35 -18 39 -51q12 -10 33 -24 h125q18 -14 35 -35v-12q0 -6 -10 -29q-12 -29 -13 -33q-31 0 -90 -4t-90 -4h-100q-35 0 -70 16v68l18 20q18 2 48 2q-31 31 -39 54q-51 45 -66 82l-16 14q-41 -45 -86 -109q-14 -14 -21 -30l-10 -9h8q12 0 37 -6l21 -18v-68q-51 -26 -74 -26h-2h-281z" />
<glyph unicode="y" d="M106 -150l11 11l8 33q30 36 91 36h3h27l49 -34q4 -12 6 -25l14 -12v-37l-14 -12q-2 -10 -6 -27l-39 -23q29 -8 61 -18q47 0 80 37q2 18 19 35l4 51q12 6 16 26l13 21l4 39l10 10q4 12 6 39l12 10l4 15l-16 18q0 16 -33 47l-4 21l-12 14q0 10 -14 27q-2 12 -17 32 q-2 12 -18 33q-2 23 -19.5 57.5t-21.5 53.5q-10 12 -17 34q-12 16 -16 41l4 -2l-10 13q-6 14 -10 30q-12 20 -17 33q-10 12 -20 12q-16 0 -52 -4t-55 -4l-31 31v29v2v30q20 29 54 43h282l23 -14l12 -20l4 -29l-4 -37q-18 -12 -88 -24l6 -9l4 -18l13 -14l6 -39l-2 2 q8 -12 28 -37q8 -23 23 -70l27 -18q2 -37 6 -58q12 -12 18 -34l6 -7q6 -16 11 -36l2 -2q6 18 24 57l8 59l11 13q2 12 12 30q0 2 12 47q8 6 19 27l8 4v76l18 8l4 25q-6 2 -22 0t-23 -2q-12 0 -59 36l41 25q-6 14 -6 27l10 24q18 0 56 4t57 4h16q23 -10 39 -10q20 0 62 9.5 t65 9.5l37 -19v-125h-152l-8 -10q-4 -16 -8 -59l-10 -11q-6 -14 -17 -24v-78l-14 -4l-10 -53q-6 -4 -17 -37q-12 -14 -24 -25v-90q-23 -4 -23 -14l-10 -13q-4 -16 -6 -36q-14 -16 -17 -33l-12 -21l-4 -51q-14 -6 -16 -28l-11 -11q-4 -14 -6 -47l-10 -8q-4 -16 -16 -37 q-2 -25 -11 -49l-8 -6q-12 -45 -53 -72q-33 -49 -137 -49q-72 0 -113 23q-29 16 -88 71l-8 25l-11 12v104z" />
<glyph unicode="z" horiz-adv-x="1019" d="M154 63v15q70 70 73 74q55 59 60 81q41 25 164 160q80 88 159 178l-94 -2q-14 0 -201 -6v-67l-12 -4v-11q10 -12 10 -32l-4 -21q-31 -39 -123 -43v147v3l-16 16l29 18v95q65 24 92 24h2h493q2 -23 7 -37l24 -22l-22 -21l-9 -35q-23 -27 -69 -77q-31 -25 -90 -74 q-8 -18 -33 -33q-10 -23 -54 -65.5t-53 -67.5q-39 -25 -57 -41q-33 -31 -39 -57q-29 -18 -53 -43q72 -4 92 -4q205 0 279 10q4 29 8 33q-4 23 -4 22q0 18 14 31v88q33 27 113 35v-275q-16 -12 -21 -24q-33 -39 -51 -39l-381 2q-31 0 -92.5 4t-91.5 4l-25 16l-16 27l14 -6 q0 23 19 24h-41z" />
<glyph unicode="&#xa3;" horiz-adv-x="1019" d="M43 106v23l12 12v88q8 2 23 19l24 26l41 17l13 12h47q8 0 129 -18l57 -31h4l2 61l-6 11q-8 18 -20 59l-7 6q-37 0 -121.5 5t-129.5 5q4 23 18 64q49 41 154 31q-14 14 -17 34q-10 12 -10 23l2 12l-4 8h-113q-18 12 -32 33v25q16 27 47.5 35t64.5 16v66l12 4q2 20 11 43 l6 6q2 12 41 53q27 29 53 57q18 20 71.5 33.5t65.5 32.5q135 4 125 4q51 0 100.5 -27.5t94.5 -56.5l10 -16l31 -19q4 -16 20 -28v-107l-31 -31q-12 -2 -20 -8q-20 -2 -57 -8l6 4l-12 6v-10h-13q-10 8 -30 12q-4 20 -19 33v92q6 10 19 25q-49 29 -84 28h-152l-23 -12 q-16 -20 -77 -35q-35 -66 -37 -88l-13 -20q4 -18 5 -41q154 2 157 2q137 0 166 -27v-41q-14 -27 -39 -35h-123l-8 9h-106l-9 8h-10l-12 -6l22 -21l5 -12l28 -19l8 -32q16 -12 27 -25l6 8l19 11q25 0 72.5 4t72.5 4h14l13 -13l32 -12q6 -33 7 -33l-7 -26q-37 -27 -81 -31 q43 4 -97 4q4 -18 6 -45l-4 2l15 -22v-105l10 -10l-12 -12q14 -18 22 -39q31 -20 100 -56h84q41 0 95 46q4 14 16 26q6 25 31 47v76q-10 12 -10 23q0 18 17 33.5t36 15.5q29 0 69 -29l9 -27l22 -22l-10 -10v-33l-12 -12v-109q-20 -12 -33 -25l-8 -24l-41 -41 q-18 -6 -60.5 -34t-70.5 -28h-144q-98 41 -176 107v-4q-68 -43 -100 -68h-39q-18 -8 -111 -8q-27 0 -63 10q-18 16 -40 36t-28 42zM150 166l6 -43q14 -2 26 -2h97q32 19 65 37l-16 12q-20 4 -33 16q-2 -2 -6 -2q-12 0 -31 11h-59q-4 0 -35 -13zM748 723l8 6q-6 0 -8 2v-8z " />
<glyph unicode="&#xa7;" d="M145 641v94l9 10l8 56q29 37 125 119v8l4 -2l-12 22v142l8 10q4 20 37 47q16 33 75.5 62.5t100.5 29.5h92q59 0 123 -45q25 -16 100 -84q2 -23 19 -49v-92q-61 -47 -101 -47q-14 0 -45 2q-25 18 -45 45l-8 22l-10 13v77l10 13l4 12h-16l-11 8q-45 8 -86 8q-53 0 -137 -67 q-2 -8 -4 -21l-8 -8v-16q-2 -18 24 -39q4 -29 54 -41q18 -18 63 -43t62 -39q33 -8 51 -27q14 -4 26 -10q18 -20 74.5 -41.5t77.5 -42.5l70 -70q37 -94 36 -139q0 -6 -18 -84q-8 -12 -27 -35l-8 -28q-29 -18 -65 -49l2 -5v-172l-27 -26q-4 -16 -22.5 -39t-22.5 -35 q-57 -31 -147 -65h-146q-66 0 -90 30q-27 10 -82 45q-2 16 -18 27q0 14 -17 27v127q8 20 52.5 45.5t66.5 25.5q31 0 86 -28q4 -14 6 -27l15 -12v-88q-20 -14 -39 -48q96 -6 73 -6q25 0 64 8q53 12 61 15q20 12 31.5 18t13.5 23q6 4 29 31l-4 59q-4 10 -12 27q-43 23 -123 77 q-43 10 -53 25q-47 16 -115 55q-55 31 -111 62q-33 27 -96 98l-10 12l-4 21zM279 678q10 -18 14 -31q16 -20 39 -41q31 -10 84 -41q25 -16 78 -49l165 -86h76q29 20 49 43q6 25 7 49l-3 23q-2 6 -6 37q-41 49 -102 84q-6 8 -92 49q-76 35 -105 47q-45 25 -110 63l-2 -2 q-37 -4 -80 -47q-6 -12 -12 -22v-76z" />
<glyph unicode="&#xad;" d="M176 549v119q23 37 76 37q27 0 79 -5.5t77 -5.5h352q14 8 35 11l6 -7q20 -8 35 -26q14 -25 26 -31v-104q-30 -41 -63 -41q-14 0 -42 4t-42 4q-8 0 -23.5 -4t-23.5 -4l-9 8h-327q-18 0 -54 -4t-55 -4l-28 26q-4 14 -19 27z" />
<glyph unicode="&#xb4;" horiz-adv-x="370" d="M-27 877v24q16 12 21 37q23 29 94 66l4 10q10 10 14 35q29 23 33 63l31 31q25 0 75 8t77 8q23 0 75 -26v-101q-16 -10 -24 -33q-18 -10 -37 -18q-20 -14 -25 -31q-8 -2 -17 -4t-7 -10q-10 -6 -23 -25q-8 -4 -86 -80q-51 -47 -96 -47q-10 0 -43 2q-25 18 -45 45l-8 23h2z " />
<glyph unicode="&#xb7;" d="M348 629v139q14 12 33 45q14 6 18 27l82 41h19q70 0 108 -15q31 -12 92 -53l9 -27l12 -12v-129l-14 -12q-2 -10 -7 -27q-12 -6 -16 -20q-70 -72 -152 -72q-76 0 -165 78l-9 24z" />
<glyph unicode="&#xbd;" d="M66 602v96q80 12 411 13q23 0 69 4t68 4h129q164 0 201 -27q2 -4 23 -33v-34q-25 -23 -43 -23h-234l-4 2l-22 -10h-129q68 -8 145 -47q6 -14 20 -33q4 -31 35 -65v-78l-14 -23q0 -23 -31 -49q-10 -27 -43 -33l2 2q-20 -14 -61 -45q-23 -12 -74 -33q-8 -8 -41 -20 q-10 -16 -31 -29l-12 -20v-29q63 -8 268 -2l9 -18q6 6 12 6q18 0 18 -39l-4 -25q-10 -18 -31 -30q-57 -10 -79 -11q-25 0 -73 4.5t-73 4.5q-18 0 -60 -4.5t-63 -4.5q-23 0 -53 17q-8 20 -12 41l-10 18q0 25 10 37q2 23 18 59q10 51 82 113q68 55 125 70q12 12 33 16 q10 12 35 16l20 21v65q-18 10 -37 27q-16 6 -73 6l-52 -20q-10 -18 -30 -29v-68h-95q-33 14 -36 46q2 20 10 32q2 29 8 47q6 8 76 80q51 20 94 27h-80l-4 2q-68 -10 -82 -10h-166q-35 0 -69 16zM279 1112l4 25q16 12 95 79.5t93 83.5q43 16 76 31h24q8 -10 19 -10 q16 -16 35 -33v-76q14 -25 16 -100l12 -12v-43l-12 -15q-4 -16 -6 -38l18 -23v-84l-10 -10v-6q2 -4 10 -13v-37l-8 -8q2 -61 -14.5 -79.5t-73.5 -18.5l-16 4l-33 27v405l-16 -20q-14 -4 -31 -4l-19 -15l-8 -30q-43 -37 -102 -37q-23 0 -38 17.5t-15 39.5z" />
<glyph unicode="&#xc4;" horiz-adv-x="1019" d="M78 18v37q14 12 18 39q25 20 62 25q53 4 65 8v109q16 10 29 20v14v-4q2 31 18 29l-2 8l-14 -6l-2 -8q2 39 10 69l6 7q6 25 21 43v116l28 19q2 25 9 51l8 8q0 -4 4 -8l-12 22v33l8 13q20 84 33 98l10 55q12 6 16 27q12 4 15 20l-17 15q31 18 33 43q14 10 18 24 q53 47 103 47q20 0 47 -6q8 -23 20 -33q2 -4 19 -30q2 -16 6 -35l10 -15l8 -51l15 -8v-98l16 -10v-62l10 -18l9 -45l6 -7q6 -20 10 -43l-4 2l12 -18l6 -39l17 -8v-82q14 -25 16 -84q29 -47 33 -121l18 -8v-78q92 0 70 0q35 -2 57 -31v-34q-29 -31 -55 -41h-244q-27 0 -55 28 q-10 29 -19 93q-23 0 111 -11v54q-8 14 -27 43q-6 16 -8 34q-74 8 -67 9q-139 0 -191 -13q-4 -20 -10 -39l-8 -12q-14 -70 -15 -57v-4q-12 2 70 2q31 0 43 -39q14 -14 14 -25q0 -12 -14 -26l-8 -21l-33 -16q-31 0 -93.5 -4t-92.5 -4q-115 0 -166 38zM176 1198v72 q12 18 31 33q14 2 55 14q35 12 51 12h49q8 0 50 -24q6 -14 22 -33v-80l-12 -10l-8 -37q-57 -33 -88 -33h-31l-43 21l-12 20l-39 21q-10 12 -25 24zM426 362q111 0 170 -16l18 12v48q-10 18 -12 73l-10 8q-8 23 -4 39l-2 2v64q-18 25 -17 76q-18 29 -20 53q-6 8 -27 80 q-2 -20 -8 -41l16 -15l-26 -18v-78h-17l-6 -43l-12 -20q2 -6 2 -15q0 -18 -8 -45l-8 -6v-78l-17 -4l-8 -41l-4 -6v-29zM588 1237q0 14 8 39q12 33 14 41q33 -8 41 -6h8q10 10 33 18h45q23 0 68 -24q10 -16 26 -33v-88l-12 -13l-12 -26q-47 -33 -70 -33h-41q-37 0 -73 47 l-9 33l-24 22z" />
<glyph unicode="&#xc5;" d="M63 23q27 39 72 86h103l12 12v76l12 8q4 18 10 43l11 6v78l12 4l8 47l12 10v70l17 8v74l18 8l-2 10q0 10 4 33l8 10l11 51l10 9v73l12 2l8 45l13 21l4 47l10 10q4 14 6 43q39 59 101 60q10 0 43 -2q16 -12 30 -31q2 -12 6 -23l-16 11q18 -16 31 -48l12 -16l6 -43l17 -8 v-72q14 -25 16 -108q10 -12 33 -29v-61q12 -20 14 -80q16 -20 21 -58q12 -12 12 -37l-10 -14q26 -40 28 -110q12 -27 17 -50l16 -8v-65q53 -2 74 -6q41 -8 69 -29q-2 -12 -18 -76q-20 -23 -39 -22h-313v102q37 14 94 20v74q-10 10 -16 35q-20 10 -29 10h-234q-6 -14 -16 -22 v-86h-2q59 -6 94 -37l4 -27l-4 -33q-10 -8 -24 -36h-349zM285 1194q0 25 10 39q2 23 12 45q63 45 139 106q63 20 84 21q33 0 94.5 -33t71.5 -61h-2l13 -15l6 -18l16 -10v-70l12 -18v-17q0 -12 -26 -57q-6 -35 -32 -58.5t-52 -46.5q-37 -12 -68 -12h-63q-39 0 -127 58l-8 18 q-12 10 -21 45q-16 18 -57 57zM424 346q57 -8 194 -8h25l-10 14l-8 47l4 -2l-13 21l-8 47l-8 12q-23 100 -20 168q-18 31 -21 55q-27 41 -29 127v-86l-14 -4q-4 -33 -10 -61l-8 -6v-70l-15 -4l-10 -49l-8 -8v-78l-14 -4l-9 -41l-12 -19q0 -20 -4 -45zM453 1157 q12 -16 47 -51l35 -2q37 0 59 22q4 14 14 25q7 21 15 31l-7 10q-4 16 -20 45q-16 8 -51 27h-47l-19 -11q-2 -4 -12 -18q-6 -27 -14 -33v-45zM627 1176l2 -2l-2 4v-2z" />
<glyph unicode="&#xd6;" d="M117 397l8 6v232l14 8q4 14 6 35q12 6 17 41q14 6 16 26l12 21q6 31 66 88q8 33 68 78q10 4 20 12h14l9 19q96 31 96 30h112q35 0 111 -47q70 -45 96 -78q10 -12 31 -37q4 -14 18 -26q2 -16 7 -31l10 -10q0 -10 16 -29q2 -29 6 -43h-2l-2 -2q0 -2 15 -18q2 -17 6 -29 l16 -10v-139q10 -23 12 -88l-12 -21l-2 -80l-14 -8v-76l-19 -6q-6 -23 -18 -35l-4 -12q-12 -10 -19 -27q-10 -8 -16 -24q-10 -8 -12 -23q-125 -121 -244 -121q-53 0 -108.5 18.5l-106.5 35.5q-4 4 -145 143l-7 31q-4 18 -26 49q-2 25 -6 41h2l-13 18l-6 33l2 -2l-12 22v23z M178 1221v43q20 31 84 55l17 12h49q61 0 90 -51l8 -47l10 -14q-2 -15 -6 -27l6 -10v-25q-10 -14 -28 -43l-43 -6l4 2l-13 2v-6q-16 2 -59 12l-8 37h-13q-43 0 -98 66zM262 473q10 -20 10 -39q0 -31 -8 -37q8 -10 10 -22l11 -8q2 -18 8 -39l10 -11q2 -16 6 -30l8 -11 q4 -12 17 -20q4 -16 16 -27q4 -16 17 -22l6 -25q63 -47 114 -65h17q-10 0 98 6q80 41 90 90q12 10 17 25q12 12 16 24l25 23q2 20 10 45l10 6v92l12 8v111q-14 23 -12 92q-16 23 -20.5 39t-24.5 43q-4 14 -18 24l-5 25l-12 10l-4 23q-16 16 -53 24q-18 31 -127 39l-21 -16 h-18l-10 4l12 10q-33 -18 -74 -49l-55 -31l-6 -22l-8 -8q-4 -12 -7 -39l-8 -8h11v-17q-14 -16 -39 -49l6 -14v-15l-4 -20q-12 -16 -23 -27v-92zM356 1153l4 2h-4v-2zM608 1196v84q43 59 119 59q27 -12 35 -16q16 -10 24 -29q29 -27 64 -49v-71q-18 -25 -45 -58 q-12 -2 -21 -10h-41q-18 6 -36 8q-25 14 -52 27q-29 20 -37 43z" />
<glyph unicode="&#xe4;" d="M150 113v149q47 82 139 115q57 20 182 33.5t182 33.5v76q-31 41 -104 41q-23 10 -76 10q-66 0 -94 -10v-78l-39 -28h-94l-29 28l-4 11l-14 18v49l10 14q4 14 6 35q127 78 270 78q145 0 197 -47q55 -12 76 -66l12 -16l-2 -403l6 -21l25 -22q29 -8 149 -7q-8 -72 -29.5 -91 t-89.5 -19q-43 0 -112 35q-4 6 -39 28q-2 20 -12 41q-27 -20 -58 -51q-41 -6 -121 -35q-57 -25 -147 -24q-98 0 -172 88l-8 22zM215 842v102l12 14q2 6 6 29q59 14 78 14q4 0 76 -12q4 -35 10 -59l-4 2l15 -23v-24q-15 -19 -19 -39q-16 -18 -51 -37h-76q-20 20 -47 33z M266 150l10 -19q10 -6 23 -16q121 -15 109 -15q29 0 106 29q47 33 139 98v103q-100 -12 -198 -25q-143 -23 -176 -55q-4 -8 -13 -21v-79zM645 868v80q14 10 19 23l26 26q41 12 41 13h29q12 0 47 -15q14 -20 31 -34v-95q-17 -22 -52 -57h-71q-27 8 -51 37q-4 12 -19 22z" />
<glyph unicode="&#xe5;" d="M139 147v134q10 6 27 32q14 18 43 27l20 20l15 9q23 -2 43 -23v21q4 14 20 26q25 8 60 8l16 -6l4 -2q37 2 102 19l9 -6l10 -3q16 -14 18 -22q18 35 74 49q49 14 51 23l11 14l-3 10l-8 12l-6 50q-18 10 -39 26q-78 25 -139 25q-10 0 -125 -8q18 -8 39 -21v-47 q-8 -4 -23 -41h-79q-16 0 -56 14l-4 17q-8 8 -14 18v33l10 14q4 20 6 60q109 61 174 61h107q63 0 141 -31q92 -33 105 -84l12 -10v-229l-17 -4q4 -8 17 -27v-137l-8 -8l32 -35q12 0 41 -3t45 -3q27 -10 56 -41v-15h-43q20 -2 18 -24l17 8l-17 -29l-27 -16h-83q-53 0 -121 68 l-8 24h2l-13 19l-2 2q-31 -39 -96 -62q-90 -33 -109 -43l-67 -2q-59 -2 -123 21q-80 29 -90 75l4 -2l-12 19q-4 14 -17 26zM238 178q49 -59 108 -59h74q29 0 77 17.5t68 37.5l47 10q4 6 9 27q14 6 14 16l12 13v8q0 14 4 37l2 2q-10 33 15 51l-4 12q-49 -14 -152 -35v9 q-29 -16 -43 -17h-143q-19 4 -29 12l2 -2q-12 -25 -47 -49l-8 -39l-6 -6v-22v-23zM303 993q0 25 12 39q4 20 17 33q8 37 51 68l-12 12q47 31 84 49h86q35 -16 65 -37q6 -14 35 -43l4 -10l47 -49l8 -49l-4 2l15 -23v-24l-13 -17q-20 -53 -63 -98q-51 -51 -100 -51h-74 q-31 0 -74 32.5t-55 61.5l-8 10q-6 25 -11 57q-10 14 -10 37zM406 995q8 -23 14 -55q6 -4 18 -8q10 -18 39 -24.5t55 -12.5q18 14 39 20l7 9l8 34l10 13l-2 18l-8 12l-6 43q-16 12 -41 33q-20 8 -31 8q-68 0 -102 -43v-47z" />
<glyph unicode="&#xf6;" d="M170 307v51l12 13v84l19 8q8 25 18 74q14 10 19 24q14 10 14 21q96 115 237 114h80q37 0 82 -43l41 2l31 -30l2 -11l78 -61q4 -14 18 -25l4 -24l19 -10v-66q10 -23 12 -115l-8 -8v-6l-4 6l-2 -106l-17 -6l-4 -37q-45 -57 -114 -107q-82 -57 -142 -57h-106q-33 0 -142 61 q0 4 -96 90q-2 12 -18 31q-4 23 -8 55l-9 11q-4 23 -8 55zM186 864v92q10 8 21 29q20 12 63 33h47q59 0 95 -62v-88q-18 -27 -56 -59q-53 -16 -67 -16q-10 0 -36 14t-34 22q-14 18 -33 35zM303 274q12 -18 14 -45l-4 2l13 -18l6 -23q33 -25 68.5 -48t70.5 -23h94 q61 0 127 67q4 16 17 27q4 16 10 27l8 8v86l12 4v2v-4l6 20q-18 27 -18 76l-8 8q-8 14 -10 27q-10 10 -17 25q-14 14 -30 47q-18 16 -46 32v4q-23 -4 -22 -4q-12 0 -29 9l-59 -2q-25 0 -82 -21q-18 -16 -51 -25l-25 -22q-8 -16 -29 -45q-2 -23 -12 -57l-4 -5v-129zM631 866 v78l10 12l6 31q35 39 62 39q31 0 92 -33q6 -14 20 -32q2 -18 19 -46v-55q-9 -10 -23 -33q-37 -27 -67 -26h-33q-29 0 -70 28l-4 25zM741 367l4 -11l13 9l-2 8q-2 -2 -15 -6z" />
<glyph unicode="&#xfc;" horiz-adv-x="1019" d="M88 633l4 29q33 33 74 32h117q12 -10 20 -12q16 -16 31 -33v-205l-15 -22l15 -8v-178l-8 -9v-53l20 -22l6 -23q14 -8 33 -14h14q59 0 93 14q18 8 75 51l8 17q18 16 20.5 20t15 31.5t38.5 66.5v93l4 2v110l2 4q-8 37 -10 60h-90q-20 10 -33 30q-2 20 -2 21q0 33 35 59h49 l10 -6l-4 -2l19 8h51l10 -10l33 2q20 -8 39 -27v-366l-6 -6l6 -6v-95l-8 -8v-55q68 0 88 -4q55 -12 55 -62q0 -37 -41 -51h-180l-10 25l-17 4v92q-39 -33 -92 -90q-78 -41 -139 -41q-131 0 -166 78q-14 10 -19 43l5 -11q-18 51 -17 474h-92q-23 8 -37 26zM174 889v67 q12 6 19 43q70 25 69 25h35l63 -33q6 -18 35 -41l-12 -12v-33q-14 -12 -23 -35q-8 -4 -16 -22q-14 -10 -47 -25h-51q-6 0 -56 35q0 12 -16 31zM604 924v39q14 10 19 22q25 29 51 39h65q8 0 54 -27q4 -14 18 -28l4 -45l-4 -43q-18 -27 -49 -50q-6 0 -20.5 -4t-22.5 -4h-25 q-8 0 -24.5 4t-24.5 4q-4 12 -22 33l-9 45z" />
<glyph unicode="&#x2000;" horiz-adv-x="788" />
<glyph unicode="&#x2001;" horiz-adv-x="1577" />
<glyph unicode="&#x2002;" horiz-adv-x="788" />
<glyph unicode="&#x2003;" horiz-adv-x="1577" />
<glyph unicode="&#x2004;" horiz-adv-x="525" />
<glyph unicode="&#x2005;" horiz-adv-x="394" />
<glyph unicode="&#x2006;" horiz-adv-x="262" />
<glyph unicode="&#x2007;" horiz-adv-x="262" />
<glyph unicode="&#x2008;" horiz-adv-x="197" />
<glyph unicode="&#x2009;" horiz-adv-x="315" />
<glyph unicode="&#x200a;" horiz-adv-x="87" />
<glyph unicode="&#x2019;" horiz-adv-x="174" d="M-27 1001q16 12 21 27q12 10 20 37h117q45 -25 57 -88l-2 2l15 -23v-36l-13 -13v-67l-16 -9v-100l-16 -8v-152l-15 -2v-2q0 -4 11 -18v-60q-35 -39 -62 -38h-29q-33 12 -53 41v51l8 8v51q-14 23 -12 156q-18 25 -18 100q-12 23 -13 143z" />
<glyph unicode="&#x201a;" d="M381 86v139l31 33q51 49 135 49q14 0 41 -10l14 -12l23 -6q31 -25 63 -62v-59l-8 -8l8 -9v-135l-4 -2l-14 -70l-8 -10l-11 -55q-10 -6 -14 -39q-14 -10 -19 -25q-12 -10 -16 -24q-12 -10 -16 -25q-25 -20 -35 -20h-51q-33 14 -54 43v88q20 12 29 20q18 12 21 27 q10 16 26 33q2 18 10 37l7 6l2 18h-13h-57q-6 12 -51 29q-14 27 -39 49z" />
<glyph unicode="&#x201d;" d="M236 1513q14 12 18 31q12 4 18 33h117q41 -20 60 -86l12 -12v-35l-12 -21l-3 -71l-14 -9v-98l-18 -8v-158h-13v-6q10 -14 11 -39q0 -25 -17.5 -47t-42.5 -22h-28q-27 0 -56 41v51l8 8v51q-14 23 -12 154q-18 25 -16 100q-14 23 -12 143zM631 1399v114q18 23 69 64h54 q23 -12 61 -33q8 -12 25 -35v-151l-13 -10l-8 -33l-8 -10v-70l-8 -2l4 -4v-25q-6 -8 -10 -12l22 -27l-24 -16v-145q-18 -18 -39 -31h-33q-18 0 -41 20l-8 58q-8 14 -12 28l6 21l6 6v35q-14 23 -12 121l-19 8v119z" />
<glyph unicode="&#x202f;" horiz-adv-x="315" />
<glyph unicode="&#x205f;" horiz-adv-x="394" />
<glyph unicode="&#x25fc;" horiz-adv-x="696" d="M0 0v696h696v-696h-696z" />
</font>
</defs>
</svg>
